<?xml version="1.0" encoding="utf-8"?>
<!-- Generator: Adobe Illustrator 24.0.0, SVG Export Plug-In . SVG Version: 6.00 Build 0)  -->
<svg version="1.1" id="Layer_1" xmlns="http://www.w3.org/2000/svg" xmlns:xlink="http://www.w3.org/1999/xlink" x="0px" y="0px"
	 viewBox="0 0 2122.1 456" style="enable-background:new 0 0 2122.1 456;" xml:space="preserve">
<style type="text/css">
	.st0{opacity:0.49;}
	.st1{fill:none;}
	.st2{fill:#C02130;}
</style>
<g class="st0">
	<path class="st1" d="M1684.9,455.5h-8.2C1679.5,455.7,1682.4,456.2,1684.9,455.5z"/>
	<path class="st1" d="M1774.8,455.5h-3.2c0.7,0,1.3,0,2,0C1774,455.5,1774.4,455.5,1774.8,455.5z"/>
	<path class="st2" d="M431.8,456h8.8c0.2-0.2,0.3-0.4,0.5-0.5h-8.8C432.1,455.6,432,455.8,431.8,456z"/>
	<path class="st2" d="M123.3,456h6.6c0-0.2-0.1-0.4-0.1-0.5h-7.1C122.9,455.6,123.1,455.8,123.3,456z"/>
	<path class="st2" d="M282.5,456h3.8c0-0.2,0.1-0.4,0.1-0.5h-3.9C282.5,455.6,282.5,455.8,282.5,456z"/>
	<path class="st2" d="M412.1,456h10.4c0.1-0.2,0.2-0.4,0.3-0.5h-10.3C412.4,455.6,412.3,455.8,412.1,456z"/>
	<path class="st2" d="M325.2,456h6.6c0-0.2,0-0.4,0.1-0.5h-6.5C325.2,455.6,325.2,455.8,325.2,456z"/>
	<path class="st2" d="M455.1,372.6c-2.2-10.4-5.8-20.1-10.8-29.5c-1.6-3,0.2-6.2,1.8-8.6c1.3-2,3.4,0.6,5,1.1
		c4.9,1.6,9.8,1.7,14.3-0.6c9-4.6,17.5-10.2,26.8-14.1c10.3-4.3,21-8.4,32.3-9.5c10.9-1,22.8-3,31.2,5.6
		c10.3,10.7,21.4,12.6,34.8,7.7c4.9-1.8,11.1-3.3,14.8,0.1c13.5,12.5,36.7,9.8,48.6,1c0.5-0.4,1-1.4,0.9-2.1
		c-0.1-0.6-1.1-1.4-1.7-1.3c-4.4,0.4-7.8,2.8-13.4,0.2c-6.8-3.2-15.7-2-23.7-2.8c-0.4,0-0.8-0.6-1.2-0.9c0.4-0.2,0.8-0.4,1.3-0.5
		c-0.5,0-1.1,0-1.6,0c-0.5,0-1-0.1-1.5-0.3c-9-0.4-18-2.1-27-2.3c1.6-3.1-0.1-3-2.6-3.1c-2.1,0-4.2-0.8-6.3-1.4
		c-0.1,0-0.1-1.1,0.1-1.4c2.2-2.5,4.5-4.9,6.6-7.4c18.5-21.3,10.8-37.5-10.1-50.6c-1.4-0.9-3.2-1.2-4.7-1.8c1.8-2.1,3.4-4.5,5.5-6
		c1.9-1.4,4.5-1.9,6.8-2.7c12.6-4.1,19-17.6,33.4-19.7c11.9-1.7,23.6-2.3,33.9,3c16.9,8.7,24.7,35.2,18.2,54.6
		c-3.3,9.8-10.5,17.5-13.9,27.2c-0.6,1.7-0.2,2.4,1.2,2.8c3.7,1.3,3.7,1.2,0.3,4.8c-0.5,0.5-0.7,1.2-1,1.8c0.5-0.1,1.2-0.1,1.4-0.4
		c9.7-11.3,20.5-22.4,23.7-37.3c3.2-15.2-1.3-29.9-8.7-43.1c-3.4-6-8.5-11.7-14.2-15.5c-5.5-3.6-12.7-4.4-19.2-6.5
		c-0.4-0.1-0.8-0.3-1.2-0.4c0.2-0.3,0.3-0.7,0.5-0.8c6.8-1.3,13.6-5.1,20.1,0.9c3.5,3.3,7.7,5.9,11.2,9.2
		c8.1,7.7,10.4,18.3,14.2,28.2c0.6,1.6,0.5,3.9,3,3.2c2.3-0.6,2.2-2.6,1.5-4.5c-1.3-3.8-3.2-7.4-3.8-11.3c-3.1-18.8-22-29.8-34.9-31
		c-8.7-0.8-17.2,2.2-25.9,4.2c-12.3,2.9-24.7,4.6-33.8,14.2c-6.7,7.1-14.1,10.8-24.2,10.1c-8.6-0.5-14.6,3.8-16.2,12.8
		c-0.7,4-1.9,7.1-7.3,7.2c-3.1,0-5-2.6-8.4-1.7c-13.5,3.5-27.3,0.9-40.9,0.3c-0.6,0-1.3-0.5-1.9-0.8c0.4-0.6,1-1.1,1.3-1.7
		c1-2,4.6-3.3,3.1-5.9c-1.5-2.6-4-1.1-6.2,0c-3.4,1.7-6.8,3.3-10.4,4.7c-1.2,0.5-2.7,0-4.1,0c0.6-0.8,1.3-1.5,1.9-2.3
		c6.4-7.5,12.8-15,19-22.6c1.2-1.4,2.9-3.6,0.4-5.4c-2.5-1.9-4.1,0.4-5.5,1.9c-7.5,7.7-14.9,15.6-22.4,23.4c-1.3,1.3-2.4,2.8-4.6,2
		c-5.6-2-11.3-3.5-16.6-6c-10.6-5-24.3-2.3-31.4,6.9c-1.2,1.6-2.3,2-4.1,1.2c-11.5-4.9-19.7-13.8-28.2-22.3
		c-0.4-0.4-0.5-1.3-0.7-1.9c1.3,0.1,2.9-0.3,3.8,0.4c10.5,7.7,23.3,7.2,34.8,6.7c20.2-0.9,41.1-2.2,59.4-12
		c17.6-9.4,35.9-18.6,46.3-36.9c7.8-13.8,7.2-28.2-0.3-41.7c-6.2-11.2-18.2-12.9-29.6-13.9c-10.2-0.9-18-4.2-22.2-14.2
		c-2.2-5.1-1.3-10.5-2.8-15.6c-0.2-0.8-0.9-1.7-1.7-2.2c-0.3-0.2-1.9,0.8-1.9,1c1.3,4-2.6,6.5-2.9,10.2c-1,11.5,5.9,17.1,14.7,22.6
		c7.6,4.7,17.1,8.2,19.5,18.4c1.2,5.2-0.5,9-4.1,13.5c-15.6,19.4-35.3,27.1-59.6,22.7c-16-2.9-29.7-10.2-38.6-24.4
		c-1.6-2.6-2.9-6.8-1.9-9.3c1-2.5,5-0.1,7.7-0.2c1.2,0,2.4,0,3.5,0c12-0.2,24.2-4.2,36,0.6c11.2,4.6,23.7,7.6,28.8,20.6
		c0.6,1.5,2.2,2.7,4,2.3c0.7-0.1,1.2-1.4,1.8-2.1c-3.5-2.8-1.4-8.1-3.8-10.4c-10.4-10.2-23.4-16-37.5-19.3
		c-13-3.1-25.9,1.7-38.9,0.7c-3.8-0.3-5.2-2-4.7-5.6c1.2-10.3,3.5-20.2,8.7-29.2c4.9-8.5,7.7-18,13.5-26.2c4.9-7,9.9-14.3,12.9-22.2
		c4.7-12.1,9.2-24.5,6.2-38.1c-1.4-6.3,1.6-12.9-1.5-19.1c-1.5-2.9-4-1.2-6.1-1.6c-0.3-0.1-1.1,0.7-1.1,1.1c0.1,6.9-0.6,14,0.7,20.7
		c2.6,13.4-2.5,25.5-7.7,36.4c-7.5,15.8-17.7,30.3-25.6,46c-9.8,19.5-12.2,39.1-0.3,58.6c6.6,10.8,17.2,17.3,28.6,22.1
		c10.8,4.6,22.2,7.9,34.3,6.5c6.1-0.7,12.2-1.9,17.9-3.9c11.5-4.2,21.8-10.8,30.2-19.7c4.5-4.8,8-10.2,6.1-17.6
		c-1.6-6.1-4.4-11.3-9.1-15.6c-0.5-0.4-0.8-1.1-1.1-1.7c0.4-0.1,0.8-0.5,1.2-0.4c6,1.7,12.6,2.6,16.8,7.7
		c10.4,12.8,8.9,31.9-3.8,42.5c-17,14.2-34.2,28.3-56.5,34.2c-14.2,3.8-28.7,6.1-43.4,5.9c-8.7-0.1-17.9,1.1-25.7-4.9
		c-2.4-1.8-5.6-2.5-8.1-4.2c-6.5-4.4-11.6-10.5-18-15.1c-5.9-4.3-12-9-12.7-17.8c-0.9-13.5-2.8-26.9-4.7-40.3
		c-0.5-3.5-2.1-8.8-5.2-8.8c-2.8,0.1-1,5.4-1.3,8.4c-0.1,1.2,0.2,2.5,0.2,3.8c0,2.1-0.1,4.2-0.1,6.3c-2.5-1-2-3.6-2.7-5.5
		c-0.9-2.6-2-5.1-2.9-7.7c-3.6-10.1-3.3-20.8-1-30.7c1.7-7.3,3.5-14.1,2.3-21.7c-0.7-4.2,0.6-4.9,4.1-3.9c0.5,0.1,1.6-0.6,1.8-1.2
		c3.1-9.6,6-19.2,4.4-29.4c-0.2-1.2-0.8-3.4-1.4-3.4c-2-0.2-2.3,2-2.9,3.4c-1.2,2.5-2.1,5.2-3.1,7.8c-0.7-3.4-0.3-6.7,0.1-10.1
		c0.5-4.9,4.6-9.2,0.7-14.8c-5.5-8-10-16.6-14.7-25.1c-0.9-1.6-1.5-4.7-3.5-3.1c-2.5,2.1-6,7.5-5.3,8.3c3.8,4.4,4.8,9.7,5.9,14.8
		c0.6,2.7,4,5.6,3.2,6.2c-4.1,3.2-0.3,5.4,0.4,7.9c0.3,1.2,0.9,2.3,0.8,3.5c-0.1,5.4-0.6,10.8-0.5,16.3c0.1,7.5,1.1,15,0.9,22.5
		c-0.3,12.3-4.8,24.3-2.5,36.8c0.1,0.6-0.3,1.3-0.4,1.9c-0.5-0.3-1.2-0.5-1.6-0.9c-8.8-7.7-20.8-8.7-30.5-14.9
		c-8.5-5.5-19.1-7.9-28.3-12.6c-25.2-12.8-47.9-29.5-69.5-47.4c-17.3-14.4-33.6-30-52.9-41.9c-1.3-0.8-2.5-1.5-3.8-2.3
		c1.4-0.2,2.8-0.6,4.2-0.7C196,2.7,255.3,2.1,314.6,1.6c15.8-0.1,15.8-0.1,17.7,15.3c1.9,15.5,8.8,22.9,21.2,22.6
		c1.3,0,3.3,0.5,3.2-1.4c-0.1-2.1-2-3-4-2.9c-4.6,0.2-8.5-0.3-9.3-6.1c-0.3-2.2-1.4-4.3-2.2-6.4c2.3,1.5,2.6,4,3.3,6.3
		c0.6,2.1,1.9,2.9,3.9,3.1c2.3,0.2,2.2-1.8,2.3-3c0.5-7.6-3.4-13.2-9.6-16.8c-4.1-2.5-3.7-7.1-6.5-10c2.5-1.7,5.3-0.5,7.9-0.9
		c0.1,0,0.2-0.1,0.8-0.5c-4.3,0-8,0-11.7,0C251.2,1.2,170.8,1.5,90.5,1.9C60.2,2,29.9,2.2-0.4,2.4v2.1c24.3-0.2,48.6-0.4,72.8-0.7
		c15.6-0.1,31.2-0.2,46.7-0.3c2.2,0,4.8-0.4,6.2,1.9c1.4,2.4-1.8,2.7-2.3,4.3c-0.2,0.6-0.2,1.3-0.2,2c0.7,0.1,1.7,0.4,1.9,0.1
		c4.8-5.2,8.6,0.2,11.3,2.1c33.7,24.3,63.4,53.8,98.7,75.8c24.4,15.2,50.1,28.6,78,36.7c5.7,1.6,6.3,4.1,7.8,8.4
		c3.8,10.9,8.6,21.4,12.5,32.2c2.4,6.6,2.5,13.9,5.9,20.2c5.8,10.8,15.4,17.8,25.2,24.6c4.2,2.9,5.9,8.6,11.4,10.2
		c0.1,0,0,0.8-0.1,0.8c-1.1,0.1-2.3,0.5-3.2,0.1c-8.9-3.4-17.9-6.5-26.4-10.6c-11.8-5.8-23.7-11.7-34.7-18.9
		c-16.7-10.9-32.7-22.9-48.9-34.5c-5.7-4.1-12.3-7.4-16.9-12.4c-13.4-14.8-31.3-24.1-45.4-37.9c-17.2-16.8-36.8-30.5-58.1-41.5
		c-6.8-3.6-14.6-5.5-22-7.9c-1.1-0.4-2.6,0.5-3.8,0.9c-11.3,3.2-14.3-3.5-16.3-12.6c-1.9-8.5-7-15.9-8.4-24.7
		c-0.4-2.3-2.2-5.1-5.6-4.4c-3.4,0.6-1.2,3.1-1.4,4.8c-0.2,1.1-0.8,2.1-1.2,3.1c-0.2-1.2-0.8-2.4-0.6-3.5c1.1-5.6-6.9-7-5.8-12.5
		c-0.3,0.3-0.8,0.6-0.8,0.9c-0.4,6.3-2.6,12.4-1.4,18.9c0.2,0.9-0.1,3-1.4,1.2c-1-1.5-2.5-1.5-3.5-2.6c-1.9-1.9-3.8-3.8-5.8-5.8
		c-0.2-0.3-0.4-0.6-0.6-0.9c4.4-2.3,0.1-5.1,0.5-7.2c0.6-2.7-0.5-3.6-2-4.8C60,8.4,58.4,9,57,10.6c-7.1,8.4-11,18.9-18.6,27
		c-4.9,5.1-9.2,10.8-14.9,15c-0.3,0.2-0.7,0.2-1.1,0.3c0.2-0.3,0.3-0.6,0.6-0.9c9.9-10,16.7-21.7,20.8-35.1c0.6-1.9,1.9-3.6,4-4.1
		c1.5-0.3,3.1-0.3,4.7-0.5c-0.2-0.2-0.3-0.5-0.5-0.5c-2.5,0.2-5.3-0.2-7.3,0.8c-3,1.5-3.4,5.1-4.4,8.1
		c-4.6,14.2-14.3,24.9-24.1,35.7C11.4,61.8,5.6,66.1-0.4,70v10.2C10.8,73.9,21.4,66.5,31.8,59c11.4-8.2,19.7-19.3,27.6-30.7
		c0.1-0.1,0.2-0.5,0.2-0.5c4.3,1.6,2-1.9,2.8-3.2c0.7-1.1,2.1,0.3,3,1.2c9.7,9,12.3,23.2,23.1,31.5c1.4,1.1,3.8,1.4,4.6,2.8
		c3,4.5-2.3,5.1-4.2,6.5c-12.5,9.9-27.9,16.1-38.1,29c-1.4,1.7-2.3,3.8-3.5,5.6c-0.3,0.4-1,0.9-1.4,0.8c-0.8-0.2-1.6-0.7-2.3-1.2
		c-0.1-0.1,0.3-1.1,0.7-1.5c7.9-8.7,14.8-18.4,25.8-23.7c0.6-0.3,0.9-1.3,1.4-1.9c-0.8,0.2-1.6,0.1-2.2,0.5
		c-10.5,5.6-18.4,14.3-26.1,22.9c-2.4,2.6-4.1,1.6-6.1,0.6C25,92.1,12.5,88.6-0.4,87.9v7.5c9.1,0.1,18,2.4,26.8,6.8
		c4.4,2.2,6.8,7.6,12.7,7.3c1.3-0.1,4.2,2.8,4,3.4c-1.4,3.9,2.2,2.1,3.2,3c1.8,1.6,4.3,2.3,6.2,3.8c20.6,17,36.5,38.2,53.3,58.6
		c1.3,1.6,1.1,2.3-1.2,3.1c-1.9,0.7-3.4,2.7-5,4.3c-0.1,0.1,0.7,1.4,0.9,1.4c4.5-1.1,8.4,2.6,13,1.6c4-0.9,5.2,3.5,7.6,5.6
		c0.2,0.2-0.2,1.7-0.4,1.7c-2.6,0.4-3.3-2.1-4.9-3.3c-0.7-0.5-1.4-0.9-2.1-1.4c-0.4,1-1.1,2.1-1.1,3.1c0,3.7,13.2,12.6,16,10.4
		c4.2-3.4,5.6,0.2,7.9,1.9c4.2,3,8.3,6.2,12.4,9.3c0.5,0.4,0.9,1.1,1.3,1.6c-0.5,0.2-1.1,0.5-1.6,0.7c-5.1,1.8-6.4-2.8-9-5.2
		c-1-0.9-2.9-2.1-3.6-1.7c-1.7,0.9-0.4,2.6,0.2,3.8c2.1,4.4,5.4,7.5,10.7,6.6c4.9-0.8,7.6,1.5,9.4,5.4c0.8,1.6,1.4,3.3,3.6,3
		c0.8-0.1,2-0.5,2.2-1.1c0.7-1.8-1.1-2.6-1.9-3.9c-0.5-0.9-0.8-1.9-1.1-2.9c1,0.2,2.1,0.2,3,0.7c4,1.9,8,3.9,11.9,5.9
		c1.8,0.9,4.2,1.7,0.6,3.8c-0.9,0.6-1,2.7-1.4,4c0.5,0,1.1,0.1,1.4-0.1c5.5-3.1,11.6-0.6,17.4-1.3c6.4-0.7,13.2,3.3,20,4.3
		c10,1.5,21,4.8,28.2-5.7c1.9-2.7,7.1-5.2,4.8-9c-2.5-4.2-7.9-3-12.1-2.4c-2.9,0.5-4.6,3.5-5,6.2c-0.7,4.7-3.5,5.9-7.7,5.6
		c-17.2-1.5-33.6-6.1-49.1-13.5c-6.9-3.3-14.2-8-13.6-16.1c1.4-16.1,4.3-32.2,19.2-42.6c8.1-5.6,17.1-8.8,27.1-8.3
		c19.6,0.9,36.8,9.3,53.7,18.1c9.8,5.1,16.2,13.8,21.2,23.4c0.6,1.2,0.8,2.6,1.2,4c-1-0.6-1.9-1.1-2.6-1.5
		c8.5,16.7,14.8,34,16.2,53.6c1.6,22.1,0,42.6-12.7,61.2c-2.4,3.5,0,8-3.5,10.9c-0.7,0.6-1.1,1.7-1.6,2.5c1.2,0.6,2.9,2,3.5,1.6
		c3-2.1,6.5-4.6,8-7.1c2.1-3.3,3.2-3.8,5.9-2c3.6,2.4,7.6,3.3,11.8,4c7.8,1.5,15.6,0.1,23.4-0.5c1.1-0.1,2.2,0.6,3.3,0.9
		c-0.6,0.5-1,1.2-1.7,1.5c-8.3,3.6-16.6,7.4-25.1,10.5c-6.6,2.4-13.4,6.6-20.5,3.4c-8.6-3.9-18.4-6-24.1-14.8
		c-1.1-1.6-3.4-2.9-5.5-1.9c-2.3,1.1-2.4,3.5-1.7,5.7c1.6,5,3.4,9.9,5.1,14.9c0.3,0.9,0.4,1.9,0.5,2.8c-1-0.4-2.3-0.6-3.1-1.2
		c-3.8-3.2-6.9-7.1-11.6-9.5c-9-4.5-14.3-12.5-18.7-21.2c-0.5-0.9-1.2-2.6-2.8-1.9c-1.5,0.6-1.6,2.1-1.3,3.5
		c1.1,5.5,0.8,11.3,3.3,16.6c0.3,0.7,0.1,1.7,0.1,2.5c-0.6-0.6-1.1-1.2-1.8-1.7c-1-0.8-2.1-1.6-3.1-2.4c0.5,1,0.8,2.2,1.6,3
		c7.3,7,10,16.3,12.9,25.5c0.2,0.7-0.2,1.6-0.4,2.5c-0.8-0.3-1.9-0.3-2.3-0.8c-4.9-6.2-12-10.3-16.1-17.2c-0.7-1.2-1.8-3.5-3.9-2.3
		c-2,1.1-1.9,3.2-1.6,5.3c1.6,9.4,7.8,16,13.4,23.1c1.5,1.9,5.5,6.7,2.3,6.9c-7.9,0.4-15.2,3.4-22.9,3.8
		c-12.6,0.7-24.4,3.9-35.4,9.4c-4.6,2.3-6.4,0.3-8.4-2.5c-5.7-8.2-11.2-16.5-16.8-24.7c-0.9-1.4-1.9-2.8-2.9-4.1
		c1.1,0.4,2.1,1,3.2,1.2c11.9,2.4,24,2.1,36,1.8c6.6-0.2,13.7,0.3,18-6.5c0.7-1.1,1.5-2,0.6-3.1c-0.5-0.6-2-1.2-2.5-0.9
		c-13.3,7.2-27.6,3.3-41.5,3.3c-5.8,0-12.9,0.8-17.3-2c-7.5-4.9-13.6-12.2-19.7-18.9C94.3,309,68.6,294.6,36,294
		c-3.8-0.1-8.9,1.9-11.2-1.3c-7-9.4-15.4-15.9-25.1-19.5v8.2c5.2,3.3,9.9,7.7,14.4,12.4c0.3,0.3,0.3,0.7,0.5,1.1
		c-0.7,0.2-1.5,0.6-2.2,0.7c-4.2,0.4-8.4,0.6-12.6,1v7.3c7.4-1.4,15.1-1.8,22.9-1.9c12.8-0.1,25.6-1.5,37.9,3.6
		c0.5,0.2,1,0.5,1.5,0.8c-0.6,0-1.2,0-1.8-0.1c-4.4-0.8-8.7-1.6-13.1-2.3c-0.6-0.1-1.3,0.4-1.9,0.7c0.6,0.3,1.1,0.6,1.7,0.8
		c7.1,2.3,14.7,2.5,21.5,5.8c0.8,0.4,2-0.1,3-0.2c-0.7-0.4-1.5-0.6-2.2-1.1c-0.8-0.6-1.5-1.4-2.3-2.1c1.2,0.3,2.5,0.4,3.6,0.8
		c15.2,6.6,26.5,18.1,38.2,29.2c14.2,13.5,25.1,29.7,36.6,45.3c9.5,13,9.9,13.8-1.6,25.6c-10.4,10.8-16.4,23.6-22,36.9
		c-1.6,3.7-1.9,6.9,1,9.7h7.1c-1-6.3,3.6-10.9,5.5-16.2c3.3-9.7,9.5-18.1,17-24.8c4-3.6,6.4-9,11.9-11c0.7-0.2,1.7-0.2,2.3,0.1
		c1.4,0.6,3.2,0.3,3.4-0.7c2.2-12.5,14.1-10.9,22-14.1c8.8-3.5,18.7-4.1,28.2-6c3.2-0.6,6.3,1.6,8.9,1.3c5.4-0.5,9.5,2.8,14.3,3.4
		c16.9,2.1,32.8,16.9,36.2,33.4c2.3,11.4,3.6,23,3.1,34.6h3.9c2.5-12.4,0.5-24.5-2.5-36.6c-0.7-2.7,0.2-4,3-3.1
		c10,3.1,21.5,0.5,30.3,8.5c2.1,1.9,3.5,3.5,4.3,6c2.6,8.2,5.5,16.3,3.7,25.1h6.5c1-6,0.1-11.8-2.8-17.2c-1.2-2.3-1.9-4.3,1.9-5.4
		c9.6-2.7,15.8-8.9,21-17.6c9.4-15.7,20.9-30.1,39.1-37.1c2.8-1.1,4.9-3.7,7.7-4.7c10.9-4.1,15.4,4.7,20.8,11
		c15,17.7,10.9,43.9,0.3,59.7c-2.5,3.7-4.4,7.8-7.2,11.4h10.3c7.5-12.1,14.2-24.4,13.9-39.3c-0.3-18.6-6.7-34.1-21.9-45.5
		c-0.8-0.6-1.3-1.8-1.9-2.7c0.8-0.5,1.6-1,2.4-1.4c8.3-4,14.7-10.7,22-16.1c1.1-0.8,2.4-1.2,3.5-1.9c0.3,1.3,0.4,2.5,0.8,3.8
		c2.6,8.6,6.5,16.9,7.2,26c1.4,18.7,5.4,37.4-1.8,55.9c-3.3,8.4-9.6,14.4-14.9,21.3h8.8c8.8-9.5,14.3-20.7,16.5-33.4
		C460.3,405.5,458.6,389.1,455.1,372.6z M486.3,204.5c6.4-4.9,12.8-9.8,19.2-14.7c0.5-0.4,1.1-0.5,1.7-0.7c0.1,0.2,0.2,0.5,0.5,1.2
		c-3.6,3-7.2,6.1-11,8.9c-3,2.3-6.3,4.2-9.5,6.2c-0.4,0.3-1.1,0.2-1.6,0.2C485.7,205.3,485.9,204.8,486.3,204.5z M248.4,160.1
		c-15.1-5.9-30.3-11.9-46.5-13.9c-17.1-2.1-43,11.6-49.4,30.1c-2.5,7.1-2.9,14.2-4,20.1v7.3c-1.8-1.1-3.8-1.9-5.4-3.2
		c-15.1-11.6-26.3-26.7-38.2-41.3c-13.9-17-26.9-35.1-45.9-47.3c-4.5-2.9-6.3-4.9-2.1-10.4c9.2-12,21.9-19.1,34.2-27
		c1.8-1.2,3.3-2.1,2.5-4.6c-0.4-1.2,0.6-2.1,1.9-2.1c4.4,0,8.8,0.3,13.1,0.1c10.2-0.6,20.5-0.3,29.6,4.3c17.2,8.6,33,19.3,46.8,32.9
		c10.7,10.5,23.1,18.9,34.9,28c10.4,8,18.7,18.5,30,25.4c1.6,0.9,4.2,1,4.5,3.7C252.4,161.5,250.4,160.9,248.4,160.1z M586,316.1
		c-4.1,1.5-8.3,3-12.4,4.3c-0.2,0.1-1.5-1.8-1.5-2.7c0-1.8,1.1-3.2,3.1-3C578.7,314.9,582.3,315.6,586,316.1z M553.4,251.6
		c1.9-5.1,5.4-8.6,11.1-9.5c0.4-0.1,1,0.7,1.5,1.1c-4,2.9-4.2,10.1-10.3,9.6C554.1,252.9,553,252.8,553.4,251.6z M291.9,206.8
		c-3.4-8.1-7.8-15.9-10.8-24.3c-0.1-0.3,0.2-0.8,0.3-1.1c0.8,0.3,1.8,0.5,2.4,1c13.7,11,28.5,20.3,44.2,28.2
		c13.7,6.9,27.4,14.3,42.7,17.7c5.7,1.3,7.3,7.2,11.2,10.6c6.8,6.1,14.4,11.1,22.2,15.8c5.8,3.5,1.8,10.6-0.4,11.5
		c-14.7,6.2-25.8,16.9-37.5,26.9c-1,0.8-2.3,1.2-3.7,1.9c-4.5-2.9-9.8-2.3-14.6-4.9c-2.9-1.6-8.8-0.9-11.8-3
		c-8.1-5.6-17.8-9.2-23.8-17.7c-1.7-2.4-4.3-3.7-7.3-1.5c-0.8,0.6-1.9,0.6-2-0.7c-0.3-8.8,0.6-18-1.2-26.5
		C299.5,229.2,296.6,217.9,291.9,206.8z M317.1,316.3c-9.8,1.9-16.4-0.9-22.1-4.5c-3.8-2.4-0.4-6.7,1.4-9.8
		c2.9-5.1,4.1-10.4,4.5-16.3c0.3-4.7,1.8-9.4,3.2-14c0.6-1.9,1.9-0.5,2.6,0.4c11.8,16.3,29,22.9,47.9,26.5c1.3,0.3,2.6,1,3.9,1.5
		c-1,0.8-2,1.4-2.9,2.3c-5.1,5.4-10.9,10-18,12.7c-1.1,0.4-2.3,0.9-3.1-0.5c-0.6-1.1-1.2-2.2,0.4-3.2c0.3-0.2,0.2-1.9-0.3-2.3
		c-1.4-1.1-2.5,0.2-3.2,1.1C327.2,315.8,319.9,313.9,317.1,316.3z M439.3,335.2c-6.1,9.4-15,15.5-23.8,21.9
		c-15.3,11.2-34.1,15.5-49.7,25.9c-7.2,4.7-7.8,13.5-12.9,19.4c-7.4,8.5-9.7,21.4-22.4,25.3c-1.2,0.4-2.2,1.5-3.3,0
		c-1-1.4,0.8-1.8,0.9-2.4c0.7-3.2,0.7-6.3-2.2-8.9c-10.5-9.2-23.2-12.3-36.6-13.9c-2.3-0.3-3.4-1.4-4.3-3.2
		c-6.4-12.6-25.9-22.6-40.5-22.6c-5,0-11.1-2.6-14.6-7.6c-0.5-0.7,0-2,0-3.1c0.8,0.3,1.8,0.5,2.4,1c3.8,3.7,7.3-0.1,11-0.2
		c-0.1-0.6-0.1-1.6-0.4-1.6c-4.2-1.3-4-4.4-3.7-7.8c0.7-7.2-5.7-12.6-5.5-19.8c0-0.7,0.1-1.4,0.2-2c0-0.1,0.9-0.1,1.2,0.1
		c7.3,4.5,14.6,9.1,21.8,13.7c3,1.9,5.9,3.7,8.9,5.5c0.4,0.2,1-0.1,1.5-0.1c-0.1-0.7,0.1-1.7-0.3-2.2c-2.2-2.5-3-5.6-3.6-8.6
		c-0.1-0.7,0-2,0.3-2.1c6.7-2.7-1-1.6-0.8-2.7c0.1-0.7-0.8-1.6-1.2-2.4c0.8,0.1,1.8-0.1,2.5,0.2c2.8,1.2,5.5,2.7,8.3,3.9
		c2.2,0.9,2.9,4,3.6,4.4c6.3,3.6,13.4,2.1,19.8,0.6c19.8-4.7,39.4-10.7,54-25.9c12.4-12.9,27-23.4,39.5-36.1
		c7.1-7.3,15.6-10.4,25.3-11.8c0.9-0.1,1.7-0.7,2.6-1.1c-0.6-1.1-0.9-2.8-1.8-3.1c-3.5-1.4-2.8-3.6-1.9-6.2
		c2.6-7.7,14.1-16.2,24.1-16.2c8,3,17.6,7.1,27.5,10.3c14.4,4.7,29.2,7.6,44.6,7.3c9.5-0.2,19.1,1.9,28.4-1.9
		c7.7-3.1,15.5-5.7,23.3-8.5c0.8-0.3,1.7-0.1,2.6-0.1c-0.5,0.5-1.1,0.9-1.3,1.4c-1.1,2.5,1.2,2.1,2.3,2.3
		c12.1,2.5,20.2,9.8,20.3,18.7c0.2,15.3-9.5,31.9-21,32.8c-9,0.7-18.2-1.9-27.4-3.1c-14.3-1.9-27.5,2.7-41,6.3
		c-13,3.5-24.5,10.1-36.5,16c-1.4,0.7-4.4,1.1-4.4,0.9c-1-3,2.1-4.6,2.9-7.1c0.5-1.7,1.6-0.5,2.6-0.3c3.6,0.9,7,0.1,10.3-1.4
		c0.3-0.1,0.5-0.6,0.7-0.9c-0.5-0.1-1.1-0.5-1.5-0.4c-13.9,4.8-11.4-4.7-11.6-12.7c-0.4-16.6-6.2-30.6-21.6-39.1
		c-4.5-2.5-9.6-1.8-14.4-2.3c-1.2-0.1-2.3,0.8-2,2c0.7,3,3.2,4.1,5.8,4.4c3.6,0.5,7.4,0,9.4,4c0.3,0.5,0.3,1.2,0.3,1.8
		c0,0.1-0.9,0.4-1.1,0.3c-2.9-3.1-7.3-1.8-10.6-3.6c-2.3-1.2-5.1-1.1-6,1.6c-0.8,2.3,2.3,2.8,3.6,3.5c12.3,6.5,19.5,21.9,20.6,35.5
		C443.1,321.3,443.9,328.1,439.3,335.2z"/>
	<path class="st2" d="M1773.6,455.5c-0.7,0-1.3,0-2,0h-0.7c-2.5,0.1-4.9,0.4-7.4,0.5h26.9c0.1-0.2,0.1-0.4,0.2-0.5h-15.8
		C1774.4,455.5,1774,455.5,1773.6,455.5z"/>
	<path class="st2" d="M1994.4,456h13.7c0-0.2,0.1-0.4,0.1-0.5h-13.9C1994.3,455.6,1994.3,455.8,1994.4,456z"/>
	<path class="st2" d="M2099.4,456h10.4c-0.2-0.2-0.3-0.4-0.5-0.5h-10.1C2099.3,455.6,2099.3,455.8,2099.4,456z"/>
	<path class="st2" d="M1771,455.5h0.7C1771.4,455.5,1771.2,455.5,1771,455.5z"/>
	<path class="st2" d="M2107.5,450.1c1-7.1,2.4-14.2,3.1-21.4c0.2-2.6,2.7-4.7,2.6-5.8c-0.4-3.7-0.7-7.7,1-10.6
		c1.3-2.3,3.7,1.3,5.9,1.4c-0.6-0.9-1.3-1.8-1.8-2.8c-0.7-1.4,0.2-1.2,1.1-0.9c0.3,0.1,0.6,0.4,0.9,0.6c0.6,0.3,1.5,0.8,0.8-0.5
		c-0.4-0.7-1.6-1.3-2.4-1.4c-0.9-0.1-1.9,1-2.8,0.9c-2.3-0.2-1.4-2.1-0.8-2.8c1.6-1.7,2.9,0.5,4.4,0.7c0.6,0.1,1.8,0,1.8-0.1
		c0.1-1.7,0.1-3.4,0.2-5.1c-0.5,0.3-1,0.6-1.5,0.8c-2,0.7-4.1,3.2-5.4-1.3c-0.7-2.3-4.5-4.9-6.8-0.9c-6.8,11.9-18.7,18.4-28.5,27
		c-0.4,0.4-1.2,0.4-1.9,0.5c-0.1-0.7-0.5-1.8-0.3-2c4.4-3.9,2.5-9.7,4.1-14.5c3.8-11.1,5.1-23,7.4-34.6c0.2-0.9,0.7-1.7,1.1-2.6
		c1-2.5,0.9-5-0.5-7.1c-1.4-2.2-3.7-2.2-5.3-0.4c-2.7,2.8-5.1,5.8-7.4,8.9c-8.1,10.9-15.8,22-26.8,30.3c-1.7,1.3-3,2.6-5.9,1.2
		c-8.1-3.8-12.6-10.8-15.5-18.3c-0.5-1.3-1.4-3.3-2.2-4.8c-4.3-8.3-8.9-16.4-13.2-24.6c-3.3-6.2-6.3-12.5-9.3-18.8
		c-0.4-0.8-0.5-2.1-0.1-2.8c0.6-1,1.2,0.3,1.8,0.5c1.5,0.4,3,0.2,4.6,0.3c-1.1-1-2.7-1.9-3.1-3.2c-0.6-2.2-2.2,0-2.5-0.8
		c-0.9-2.3,2.1-3.1,2.4-3c1.5,0.6,2.7,2.7,4.1,2.8c6.6,0.4,12.1-2.8,16.5-7.2c2.9-2.9,4-7.3,8.3-9.3c2.6-1.2,5.4-2.8,7-5
		c2.9-4,4.9-8.6,7.4-12.8c3.1-5.2,5.8-10.7,9.8-15.1c1.6-1.7,0.6-7.2,4.1-5.2c5.8,3.4,11.7,7.5,15.7,12.7
		c11.5,15.1,19.9,32.4,33,46.4c2.3,2.5,5.8,3.9,8.7,5.8c0.2-2,0.6-4,0.5-6c0-1-0.8-2.2-1.6-2.9c-6.2-6-10.7-13.2-15.4-20.3
		c-8.5-12.8-14.8-27.5-29-35.6c-3.2-1.8-6-5.1-10.3-3.4c-0.8,0.3-1.5,0.9-2.3,1.3c0.3-1.2,0.4-2.4,1-3.4c1.5-2.8,2.9-5.7,4.8-8.3
		c5.4-7.1,3.6-17.2,13.9-23.1c9.5-5.4,13.5-17,11.2-29.3c-0.5-2.5-4.3-5.6,0.8-9c9.9-6.7,14.3-26.5,9.4-37.3
		c-0.3-0.7-0.1-1.9,0.2-2.7c3.8-8.2,9.5-15.2,13.2-23.6c2.3-5.1,3.8-9.5,2.5-14.9c-0.9-3.8-3.5-9.5-1.9-11.1c5-5,3.4-10.4,3.7-15.9
		c0-0.7-0.2-1.5-0.4-2.3c-0.3,0.6-0.5,1.3-0.9,1.9c-1.4,1.8-2.9,3.5-4.4,5.3c0.4-2.1,0.5-4.2,1.1-6.2c4-13.3,5.1-27,4.6-40.8
		c0-0.5-0.2-1.1-0.2-1.6c-0.4,0.3-1,0.5-1.1,0.9c-6,13.1-9.9,27-13.8,40.8c-0.1,0.3,0.4,0.7,0.6,1c0.2-0.3,0.5-0.7,0.6-1
		c0.7-2.6,1.3-5.2,2.1-7.8c0.2-0.6,0.7-1,1-1.6c0.1,0.6,0.3,1.2,0.2,1.8c-2.2,11.2-4.5,22.3-6.8,33.4c-0.1,0.6-0.6,1-0.9,1.5
		c-0.2-0.6-0.8-1.2-0.7-1.8c1-5.4,2.1-10.8,3-16.2c0.2-0.9-0.2-2.6-0.5-2.6c-1.6-0.2-1.1,1.3-1.3,2.1c-2.2,10-4,19.9-5.4,30.1
		c-2.2,16.3-6.9,32.3-11.1,48.2c-2.8,10.6-7.3,20.6-8.8,31.6c-0.7,5.3,0.8,10.9-2.9,16.2c-4.7,6.7-9.4,14-12,21.7
		c-5.5,15.9-16,28.9-24.3,43.2c-1.5,2.5-2.7,5.2-5.4,7.2c-9.8,7.1-21,10.8-31.9,15.6c-11.5,5-23,7.1-34.9,7.8
		c-23.6,1.4-47.1,4.7-70.8,0c-16.5-3.3-32.7-7.6-48.1-14.4c-27-11.9-39.9-35.1-49.5-60.9c-0.2-0.6-0.9-1.6,0.3-1.6
		c4.1-0.1,1.8-2.3,1.2-3.7c-1.3-2.9-3.5-5.6-4.2-8.7c-2.4-10-5.5-20.1-6.3-30.3c-2-26.4,2.6-52.5,6.6-78.5c0-0.2,0.2-0.5,0.3-0.7
		c0.1,0.5,0.4,0.9,0.3,1.4c-0.1,1.8-0.2,3.7-0.3,5.5c0.4-2.7,0.9-5.4,1.6-8.1c0.3-1,0.5-2,0.8-3.1c0.6-10.5,1.4-21,2.3-31.5
		c1.6-17.2-18.9-34.8-35.4-29.5c-0.8,0.3-1.9,0.1-2.8,0.1c0.4-0.9,0.6-1.9,1.2-2.6c9.4-10.2,37.6-9.6,43.6,8.8
		c6.9,21.3,5.6,43.6,9.5,65.2c5.9,32.8,11.1,65.7,28.4,95c8.3,14.2,18.2,26.9,33.7,34.3c13.2,6.4,26.8,4.9,40.6,3.4
		c4.7-0.5,10.4-4.8,13.5,2.9c2.1,5.3,4.3,10.5,6.7,15.7c0.6,1.3,1.9,2.3,2.9,3.4c0.3-0.3,0.7-0.5,0.8-0.9c0.5-4.4,1.1-8.7-0.8-13
		c-1.1-2.4-2-4.9-3.1-7.3c3.1,0.2,4.6,3,7,4.2c1,0.5,2.7,0.9,3.5,0.4c1.6-1-0.1-2.2-0.7-2.9c-2.7-3.6-5.8-7-10.3-8.5
		c-1.8-0.6-1.9-1.3-0.6-2.6c4.4-4.5,8.5-9.3,13.2-13.5c3.8-3.4,10.1-8.2,10.7-10.2c1.9-7.2,5.7-12.1,10.9-16.7
		c0.2-0.2-0.1-1.6-0.4-1.7c-2.7-0.4-1.5-2.1-1-3.3c1.4-3.1,1.7-6.2,2.1-9.6c3.2-24.5-6.9-45.7-16.8-66.7
		c-6.5-13.8-9.5-28.6-15.6-42.4c-3-6.8-4.6-14.3-6.6-21.5c-3.6-13.6-7.8-27.1-8.3-41.3c-0.4-9.3,2-18.4,4.4-27.3
		c0.4-1.6,2.5-4.4-0.5-4.8c-2.9-0.4-6.9-2.3-8.4,3.3c-3.7,14.5-4.4,29.1-2.2,43.9c0.2,1.1-0.3,1.8-1.5,1.6
		c-7.9-1.1-14.2,2.7-20.4,6.5c-13.8,8.4-26.7,17.9-39,28.3c-1.3,1.1-2,2.8-3,4.2c1.5-1.1,3-2.2,4.6-3.3c0.5-0.4,0.9-0.8,1.4-1.2
		c-0.2,0.6-0.2,1.2-0.5,1.6c-2.5,3.5-4.7,7.1-7.5,10.3c-8.4,9.6-15.5,20-21.9,30.9c-1.2,2.1-2,4.4-3.8,6.2c-0.1-2.1-0.3-4.2-0.4-6.3
		c0-0.4-0.3-0.9-0.3-1.3c-1.7-8.5-3.7-17-4.9-25.5c-2.3-16.8-5-33.4-18.4-45.8c-0.1-0.1-0.2-0.2-0.2-0.4c-1.7-1.5-3.6-2.8-5.6-3.9
		c-0.4-0.1-0.9-0.2-1.3-0.2c-16.7-2.5-32.1-5.9-44.9,9.3c-9,10.7-17.9,21.6-29.2,30.3c-5.6,4.3-8.5,10.8-14.8,15.1
		c-4.8,3.2-8.2,7.9-14.8,7.7c-1.4,0-3.9-1.5-4.1,0.3c-0.2,1.8,0.9,4.1,3.4,5.2c8.2,3.4,15.6,0.7,22.3-3.3
		c17.3-10.5,30.9-25.7,47.4-37.3c8-5.6,20.4-5.7,22.9,1c2.7,7.2,5.9,14.5,5.3,22.4c-1.7,23.3-7.9,45.9-10.8,69
		c-4.7,37.8,1.2,72.9,19.2,106.2c3.2,5.9,5.3,9.9-4.6,9.3c-4.2-0.3-8.5,1-12.7,1.7c-2.8,0.4-4.8-0.7-6.8-2.5
		c-21.7-19.8-48.1-31-76.1-37.2c-31.6-6.9-62.5-0.5-91.8,13c-26.9,12.4-49.5,30.7-69.9,51.8c-0.9,0.9-1.8,2-3,1.1
		c-1.8-1.5-1.9,0.5-2.3,1.1c-1.8,2.6-3.4,5.3-5.2,7.9c-7.2,10.6-19.8,15.5-27.3,25.8c-2.8,3.8-5.8,4.6-10.1,1.3
		c-5.1-3.9-11.9-5.3-17.3-1.9c-5.7,3.6-12.6-3.4-17.1,3.3c0,0-0.4-0.1-0.5-0.2c-2.5-5.5-4.9,6.2-7.3,0c-0.1,0.1-0.3,0.3-0.4,0.4
		c-6.4,4.4-12.6,2.4-15.7-5c-10.4-25.3-4.3-50,17.8-66.7c8.9-6.7,18.4-14.7,31.2-11.7c14.4,3.3,23.5,12.3,24,23.1
		c0.3,6.4-3.7,13.2,4.6,18.2c4.7,2.8,8.2,7.8,14.4,7.8c1.8,0,4.1,0.4,4.4-2.4c0.2-2.8-1.3-3.7-4-3.9c-8.1-0.8-14-8.1-13.8-16
		c0.2-7.2-1-14.2-6.9-19.5c-1.2-1.1-1.9-2.7-2.8-4.1c1.1-0.6,2.2-1.2,3.3-1.7c0.5,1.6,1.2,3.1,1.6,4.7c0.3,1.3,0.7,2.5,2.4,2.5
		c1.4,0,2.3-0.9,2-2.3c-0.7-5-1.4-10-2.4-14.9c-0.3-1.6-1.8-2.9-3.5-2.8c-0.4,0-0.8,2.3-0.8,3.5c0,1.9,0.5,3.7,0.7,5.6
		c0.1,0.7,0,1.3,0,2c-0.5-0.6-1.2-1.1-1.3-1.8c-0.9-3.6-1.6-7.2-2.6-10.8c-0.5-1.7-1.8-3.5-3.5-3.1c-2,0.4-0.8,2.5-0.5,3.7
		c0.8,3.9,1.8,7.7,2.7,11.6c0.2,0.8,0.2,1.7,0.4,2.6c-0.8-0.4-1.6-0.7-2.4-1.1c-11.8-6-23.6-10.8-37.2-4.9
		c-12.6,5.5-22.4,14.1-31.1,24.4c-18,21.4-18.7,42.7-2.1,64.9c0.2,0.3,0.3,0.8,0.5,1.1c-0.6,0.1-1.2,0.4-1.8,0.4
		c-8.8,0.1-15-5.2-21.4-10.2c-0.7-0.6-1.7-0.8-2.5-1.2c0.1,1.1-0.2,2.4,0.2,3.3c4.6,9.3,18.7,15.5,28.6,12.7
		c0.6-0.2,1.5,0.2,2.2,0.4c-0.6,0.4-1.1,0.9-1.7,1.1c-3.7,1-7.4,1.8-11.1,2.7c-2,0.5-5.7-0.4-5.5,1.8c0.2,2.9,3.7,1.8,6,2
		c3.4,0.2,9.3-0.5,9.6,0.7c1.9,5.8,5.2,4,8.3,2.3c15.4-8.8,33.3-7.7,49.7-12.9c0.6-0.2,1.5,0.3,2.2,0.5c-0.2,0.5-0.4,1.1-0.7,1.5
		c-11.3,15.3-28.3,22.2-45.6,24.2c-31.5,3.6-59.9-5.3-81.4-30.3c-9.2-10.7-11.4-31.2-6-44.1c4.1-9.6,12.2-15.5,18.1-23.4
		c2.2-3,6.5-6.3,10.6-4.8c3.1,1.2,5.6,5.1,5.8,8.9c0.3,5,0.2,10.2-0.8,15.1c-2,10-6.1,19.9,1.8,29.2c1.9,2.3,4.1,5.8,7,4.6
		c3.8-1.6-0.9-3-1.1-4.7c-1.8-13.5,3.4-24.9,11.7-35.1c8.9-11,10.2-25.1-2.5-35.6c-16.7-13.8-46.3-10.1-64.2,1.5
		c-11.1,7.2-20.4,16.7-27.6,27.7c-6.2,9.5-12,19.2-12.9,31.2c-0.8,11.8,0.9,23.2,2.6,34.7c2.8,18.9,6,38.6,19.5,52.8
		c25.7,27.1,57,43,96,39.1c0.8-0.1,1.5-1,2.3-1.5c-0.7-0.6-1.2-1.6-2-1.8c-3.3-0.8-6.6-1.7-9.9-1.8c-45.2-2.2-74.5-26.2-90-66.7
		c-16-42.1-7.8-75.7,22.3-101.7c21.8-18.8,40.5-20.6,61.6-5.2c3.3,2.4,3.3,7.1,2.8,10.9c-0.2,1.2-3.2-0.6-4.5-1.5
		c-5.2-3.8-22.2-5.3-27.8-1.9c-5.4,3.2-10.6,6.6-15.4,11c-10.4,9.4-13.1,21-13.5,34.1c-0.5,19.4,8.1,34.1,22.3,46.7
		c5.4,4.8,10.5,9.9,17,13.4c0.8,0.4,2,0.3,3,0.4c-0.8-0.6-1.5-1.2-2.3-1.8c-4.3-3-8.6-6-12.9-9c-0.3-0.2-0.5-0.7-0.7-1.1
		c0.2,0,0.6-0.2,0.7,0c5.4,3.9,12.9,5.3,16.7,10.9c3.7,5.4,9.3,5,14,5.7c1.8,0.3,3.5,1.4,5.5,1.5c7.3,0.2,14.8,0.8,21.9,2.4
		c18.5,3.9,34.7-3.4,49.4-11.8c9.5-5.5,17.8-14.2,25.7-22.7c14.7-15.8,31-30.2,46.8-45.1c16.5-15.6,34.8-29,54.7-40.2
		c12.4-6.9,25.9-10.8,39.5-14.2c8.1-2,16.4-4.2,25-3.6c0.6,0,1.3,0.4,1.9,0.6c-0.6,0.1-1.2,0.1-1.8,0.2c-5.1,1-10.5,1.1-15.3,3.5
		c-0.8,0.4-1.7,0.9-2.5,1.3c1.1,0,2.3,0.2,3.4,0c5.7-1.1,11.4-2.2,17-3.4c18-3.9,34.1,4.2,50.7,8.4c9.1,2.3,16.5,8.1,24.6,12.4
		c7.6,4,13,9,17.9,15.4c0.5,0.6,1.6,0.7,2.4,1c-0.2-0.7-0.3-1.3-0.5-2c-0.2-1-0.4-1.9-0.6-2.9c0.6,0.3,1.3,0.6,1.9,1
		c12.9,11.8,18.2,27.9,24.4,43.5c0.5,1.3-0.5,1.4-1.6,1.2c-0.3-0.1-1.1,0.8-1,1c0.4,1,1,2,1.7,2.9c0.1,0.2,1,0.1,1.2-0.2
		c0.6-0.6-1.3-2.4,0.6-2.1c0.8,0.1,1.6,2.3,1.9,3.6c6.3,30.8-0.3,60.1-10.1,89.1c-0.3,0.8-1.6,1.4-2.5,1.8c-1.3,0.6-1.3-0.7-1.8-1.4
		c-0.3-0.5-0.9-0.8-1.3-1.3c0,0.4-0.1,0.8,0.1,1.2c4.4,8.7-0.7,15.8-3.8,23.2c-0.6,1.5-2.1,2.4-4,2.5h15.8c0-0.1,0.1-0.2,0.1-0.4
		c-1.2-0.1-2.4-0.2-3.6-0.3c0.3-0.9,0.4-1.9,0.8-2.7c3.2-8.3,6.2-16.8,9.9-24.9c0.7-1.6-0.4-4.7,3.5-5.4c2.1-0.4-0.9-4.3,0.4-7.1
		c2.9-6.2,2.6-13.4,4.7-19.7c1.5-4.4,1.5-8.6,1.6-12.8c0.1-4.8,4.9-1.8,5.8-4.5c0.1-0.4,0.6-0.6,0.8-1c-0.2-0.1-0.5-0.2-0.7-0.2
		c-1.2,0.1-2.7,2.5-3.2,0.3c-0.4-1.9,2.8-2.9,3.8-2.5c2.4,1,3.2-1,4.7-1.4c14.1-4.4,26.7-13,41.3-15.8c5.4-1,14.6-2.4,15.5-3.6
		c7.8-10.5,17.3,1.8,25-2.8c1.8-1.1,3.9-1.5,3.5-4c-0.4-2.5-2.7-1.7-4.2-1.9c-4-0.5-8.1-0.6-12.2-1.2c-1.8-0.3-3.2-2-2.7-3.8
		c0.5-1.8,2.4-1.3,4-1.1c5.4,0.6,10.3,4,16.1,3.2c0.6-0.1,1.9,0.9,1.9,1.5c0.6,10.4,8.2,10.1,15.5,10.2c0.6,0,1.3-0.2,1.9-0.4
		c6.1-1.6,9.9-5.7,17.5,2.4c10.2,10.9,15.5,23.1,22,35.6c7.6,14.7,10,31.3,18.7,45.3c3.9,6.3,8.9,11.9,11.2,19h13.9
		c0.4-3.8-4.8,1.5-4.4-2.1c0.3-2.6,0.7-5.1,1.4-7.6c0.1-0.4,2-1,1.1-1.6c-0.8-0.5-1.3-1.8-3.2-1.6c-1.5,0.2-3.4-2.9-5.1-4.5
		c0.3-0.2,0.7-0.6,0.8-0.5c0.6,0.4,1.1,1,1.7,1.3c0.2,0.1,1-0.4,1-0.6c-0.1-1.2-0.3-2.5-0.7-3.7c-0.1-0.3-1.5-0.4-2.1-0.1
		c-0.8,0.4-1.1,2.3-2.4,0.5c-1.2-1.7,0.8-1.1,1.2-1.6c2.2-3.1-4-4.5-2-6.6c2.3-2.4,2.8-6.4-0.4-7.3c-0.7-0.2-1.6,0-2.4-0.1
		c-0.8-0.1-1.6-0.3-2.3-0.6c-5.5-1.6,0.5-7.9-4.1-10c0,0,0,0,0,0c-3.9-1.1-2.2-4.9-3-7.3c-0.9-2.7-2.1-2.2-3.8-2
		c-2.1,0.1-2.9-1.3-3.3-3c-0.1-0.3,0.6-1,0.8-1c0.5,0.1,0.9,0.6,1.3,0.9c0,0,0.5-0.5,0.5-0.6c-0.3-0.6-0.6-1.6-1-1.6
		c-2.6-0.2-4.7-0.4-1.9-3.4c-1.3-1.1-3.2-2-3.8-3.5c-2.5-5.7-4.1-11.8-7-17.4c-2.1-4.2-5-8.5-8.7-11.2c-8.7-6.4-0.1-7.3,2.9-9.4
		c1.5-1.1,3.4-1.7,4.6-3.5c1.4-2.2,2.9-4.9,5.3-0.5c2.3,4.2,7.1,2.9,10.7,4.3c0-3.6,3.1-1.4,4.5-2.4c2.8-1.9,5.5-4.1,8.2-6.1
		c1.1-0.9,1.9-0.6,2.6,0.7c7.9,15.8,16.9,31.3,23.3,47.7c4.4,11.3,12.1,19.2,20.8,26.4c5.5,4.6,11.1,1.1,15.9-3.1
		c3.1-2.8,6.2-5.9,9.8-7.7c4.9-2.5,5.5-7.8,9.1-11c0.4-0.4,0.7-1,1-1.4c0.1,0.6,0.3,1.3,0.3,1.9c-1.7,11.4-5.5,22.3-9.5,33
		c-1.3,3.4-3.2,7.4,0.1,10c3.1,2.4,7.4,0.4,11-0.4c7.6-1.7,11.9-8.5,18.1-12.3c2.5-1.5,4.7-3.4,7-5.2c1.7,3-0.4,5.7-0.6,8.6
		c-0.7,9.1-4.8,17.9-2.4,27.2h10.1C2108.1,453.9,2107.3,452.1,2107.5,450.1z M2105.8,144.5c1.9-6.1,3.9-12.2,5.9-18.2
		c0.2-0.7,0.9-1.3,1.3-2c0.3,0.8,0.5,1.6,0.7,2.1c-0.9,7.1-3.5,13.1-6.9,18.8c-0.2,0.3-0.6,0.5-1,0.8
		C2105.8,145.4,2105.6,144.9,2105.8,144.5z M2097.7,176.2c0.1-0.3,0.7-0.4,1.1-0.5c0.3,0.8,0.6,1.6,0.8,2.4
		c-1.5,4.7-2.2,9.6-5.3,13.5c0,0-0.5-0.3-0.5-0.3C2095,186.3,2096.3,181.2,2097.7,176.2z M1954.5,226.9c-2.9,5.6-10.8,8.3-12.1,13.4
		c-1.7,6.7-7.4,8.3-10.7,12.7c-5,6.7-12.4,8.5-20.6,8c-11.4,0.4-22.8,1.5-33.1-5.1c-1.7-1.1-3.1-2.6-4.6-4c1.6-0.7,3.2-1.5,4.8-2.2
		c0.8,2.1,5.5-0.2,4.4,4c0,0.2,0.9,0.6,1.4,1c2.7-6.6,7.2,0.2,10.6-1.3c1.2-0.5,2.6-0.7,3.9-1.1c-1.1-0.5-2.2-1-3.3-1.4
		c-2.2-0.8-4.3-1.5-6.5-2.3c1-1.8,2-3.5,2.9-5.3c0.3-0.6,0.4-1.3,0.6-2c-1.8,1.2-3.6,2.3-5.4,3.6c-0.1,0.1,0.2,0.9,0.2,0.9
		c0.7-0.1,1.8-0.5,1.1,0.9c-0.5,1.1-1.4,2.8-2.1,2.8c-2,0-3.9-0.7-5.9-1.1c0.6-0.6,1.1-1.3,1.7-1.8c10.3-6.6,20.4-13.4,31-19.5
		c5.3-3.1,12.4-1.4,17.7-3.6c7.8-3.2,14.8-0.2,22.1-0.3c1.2,0,2.5,0.8,3.8,1.2C1955.9,225.1,1955,225.9,1954.5,226.9z M1920.8,58.9
		c1.5-0.5,3.1,0.7,2.9,2.1c-0.4,2.8-3,1.9-4.8,2.1c-2.1,0.2-4.3,0.1-9.3,0.1C1914.8,61.2,1917.7,59.9,1920.8,58.9z M1835.8,141.7
		c11.7-18.9,25.2-36.6,40-53.1c8.7-9.6,18.4-19,31.7-22.6c1.8-0.5,4-0.1,7-0.1c14.1-5.8,12.2,7.1,14.5,14.4
		c7,22.3,13.8,44.7,23.7,65.8c6.2,13.1,10.9,26.4,14.2,40.3c2.3,9.9,0.4,19.7-4.4,28.3c-2.4,4.3-7.8,0.5-11.5,0
		c-21.9-2.9-42,0.9-60.3,13.7c-2.2,1.6-4.6,3.8-7.9,2c-0.3-0.1-1.3,0.3-1.3,0.5c-0.5,8.3-9.1,10-13,15.5c-0.1,0.1-1.2-0.6-1.8-0.9
		c0.4-0.5,0.7-1,1.2-1.3c0.6-0.4,1.3-0.6,2-1c-0.6-0.5-1.2-1-1.7-1.6c-2.3-2.5-4.6-5.2-6.8-7.4c-3.9-4.1-7.2-8.4-10.1-13.1
		c-4.4-7.3-7.7-14.9-9.9-23.5c-1.5-6-4.3-12.2-5.9-18.4c-2.4-9.2-4.1-18.7-5.7-28.2C1829.1,146.4,1833.8,144.8,1835.8,141.7z
		 M1428.6,345.9c-5.2-4.9-7.7-24.5-3.9-30.9c0.1-0.2,0.3-0.4,0.5-0.6c0.1,0.4,0.4,0.7,0.4,1.1c0,2.3,0,4.7,0,7
		c-0.2,8,0.2,15.9,4.5,23c0.2,0.3,0.1,0.8,0.1,1.2C1429.6,346.5,1429,346.3,1428.6,345.9z M1329.1,398.3c4.3,7.7,9.7,14.6,16.2,20.7
		c0.3,0.3,0.5,0.8,0.7,1.2c-0.4-0.1-0.9-0.1-1.2-0.4c-7.9-7.4-15.6-15-19.6-25.3c-0.2-0.6-0.1-1.3-0.3-3.1
		C1326.7,394.5,1328,396.4,1329.1,398.3z M1392.3,277.5c10.4,0,15,7.6,10.9,15.8c-0.2,0.4-0.3,0.8-0.4,1.2c0.4-0.2,1.1-0.3,1.3-0.6
		c1.8-2.6,2.8-5.4,3.1-8.6c0.1-0.8,1.2-2.3,1.6-2.2c1.5,0.4,0.6,1.6,0.4,2.4c-3.4,11-11.2,19.8-15.4,30.4c-0.1,0.4-0.8,0.5-1.3,0.7
		c0.1-1.2-0.1-2.5,0.3-3.7c3.1-9.1,4.9-18.2,3-27.8c-0.4-2.1-1.2-3.7-3.1-4.8c-1.1-0.6-1.9-1.7-2.8-2.5
		C1391,277.7,1392.3,277.5,1392.3,277.5z M1804.1,322.4c-0.2,2.1-1.3,1.7-2.5,1.9c-1.7,0.2-1.9-0.8-2.5-2.1
		c-3.5-8.9-7.5-17.5-13-25.4c-1.1-1.6-1.2-2.5,0.8-2.8c6.3-0.7,12.5-1.7,18.1-5.4c0.5-0.3,3.4,2,4.5,3.5
		c6.4,8.5,13.8,16.1,21.9,22.9c0.6,0.5,2.4,1.3,0.4,2c-8,2.9-16.3,5.2-25.2,6.4c0,0-0.4-0.2-0.8-0.3c0.2-0.3,0.4-0.7,0.8-0.9
		c0.9-0.4,1.8-0.8,2.6-1.1c-0.3-0.2-0.6-0.5-0.8-0.4C1806.9,321.1,1804.3,320.4,1804.1,322.4z M1881.7,343.1
		c-0.4,2.8-2.3,0.5-3.4,0.6c-12.3,1-23.7,4.9-35,9.4c-2,0.8-3.6,1.9-5-1.1c-0.8-1.6-3.2-2.1-4.6-1c-1.6,1.4,0.3,2.5,1.4,3.3
		c0.9,0.6,1.2,1.2,0,1.7c-3.6,1.3-7.2,2.6-10.7,3.8c0,0,0,0,0,0c-1.3,0.6-2.6,1.2-3.9,1.8l0,0l0,0c-2.5,2.9-6.1,4.9-9.4,4.8
		c-4.3-0.2-2-4.8-2.2-7.2c-0.6-6.4-0.7-12.9-2.9-19.1c-3.2-8.8,5.3-5.8,8-6.7c8.1-2.5,16.4-4.2,23.9-8.5c7.2-4.1,12.4,1.6,18.1,3.9
		c4.3,1.7,9.7,2.7,10,9c4.1,0.7,8.2,1.4,12.4,2.1C1880.2,340.1,1882.1,340.7,1881.7,343.1z M1927,344.8c-2.6,0.6-5.3,1.1-8.4,1.8
		c-1.6-0.5-3.3-0.9-5.1-1.6c-0.2-0.1-0.1-1.4,0-1.4c1.8-0.2,3.6-0.3,5.5-0.3c2.7,0,5.4,0.1,8.1,0.2c0.8,0,1.6,0.2,2.4,0.2
		C1928.7,344.1,1927.9,344.6,1927,344.8z M1948.1,345.4c-4.4,0.7-6-1.6-5.7-1.8c4-3.4,9.3-1.1,13.8-2.4c0.3-0.1,0.9,0.3,1.3,0.5
		C1953.6,343.3,1949.7,344.8,1948.1,345.4z"/>
	<path class="st2" d="M537.9,456h5.5c0-0.2,0-0.4,0-0.5h-5.5C537.9,455.6,537.9,455.8,537.9,456z"/>
	<path class="st2" d="M567.5,456h19.7c0-0.2,0.1-0.4,0.1-0.5H566C566.5,455.6,567,455.8,567.5,456z"/>
	<path class="st2" d="M594.4,451.9c3.9,0.3,8.1,0.3,11.8-0.8c17.9-5.2,29.4-19.3,42.8-30.7c7.6-6.4,13.6-15,21.8-20.4
		c7.2-4.7,13.2-10.9,20.7-15.3c8.2-4.8,16.5-6.8,25.1-3.8c11.2,4,19.9,0.8,25.4-9.7c2.2-4.2,5.7-8.1,9.6-10.7c2-1.3,3.1,3.8,5.4,5.2
		c3.8,2.4,7.9,0,9.8-1.8c2.6-2.6-2.2-2.8-3.5-4.4c-1.4-1.6-4.5-2.8-3.4-5.3c1-2.3,3.6-3.5,6.4-4c2.7-0.5,3.6,2.4,5.6,2.4
		c18.3-0.2,46.8-14.6,47.5-37.7c0.3-9.2,1.6-18.2,0.3-27.5c-2.2-15.6-12.4-26.6-27.6-30.5c-5.5-1.4-10.5,1.3-15.2,0.2
		c-6.9-1.6-13.6-1.9-19.7,1c-15.2,7.2-25.2,19-33.2,34c-8.8,16.4-25.4,24.9-42.3,31.9c-9.3,3.8-12.9,13.8-7.6,22.3
		c6,9.6,6,9.6-5.5,13.3c-0.5,0.2-1,0.3-1.5,0.6c-25.6,13.1-51.2,26.3-76.8,39.3c-3.9,2-8.4,3.8-12.4,1c-4.2-3-9-4.9-12.8-8.8
		c-8.9-9.2-21-14.9-27.7-26.4c-0.9-1.5-3.4-3.1-4.9-2.9c-2.3,0.3,0,2,0.1,3.1c0,0.1-0.7,0.5-1,0.4c-3.7-0.4-2.5,1.6-1.6,3.2
		c3.8,6.6,8.3,12.9,10.3,20.5c0.2,0.7,0.2,1.4,0.2,2c-0.3-0.1-0.7-0.2-0.9-0.4c-6.3-6.8-12.8-13.4-21.5-17.1c-1-0.4-2-0.8-3-1.2
		c-0.2,1.2-0.8,2.5-0.4,3.5c2.2,5.9,4.4,11.8,7,17.5c5.6,12.2,10.8,24.7,19.3,35.5c4,5.1,9.9,11.2-0.5,16.9c-2.6,1.4-2.7,5.6-2.6,9
		h5.5c0-4.4,3.7-6.8,6-9.8c1.1-1.3,2,0.3,1.8,1.9c-0.1,1.1-0.3,2.2-0.3,3.2c0,1.1,0.1,2.3,0.2,3.4c0.6-1.2,1.2-2.3,1.8-3.5
		c0.8-1.6,0.1-5.4,1.4-4.7c2.3,1.2,6.7,0.1,6.8,5.1c0.1,2.4,2.5,3.4,4.9,4.3h21.3C588.3,451.9,590.9,451.7,594.4,451.9z M680,335.7
		c3.5-3.1,7.5-6,11.8-7.6c10.7-3.9,19.6-10.4,28.2-17.6c9.7-8,11.8-20.7,20.3-29.5c9.8-10,21-15.9,35.1-16.8
		c9.4-0.6,18.9-0.2,26.4,5.3c8.9,6.5,10.7,16.9,11.5,25.3c-0.9,19.2-4.3,35.1-22.3,43c-7.1,3.1-14,6.6-22.7,4.6
		c-4.1-1-8.3,2.6-12.9,2.7c-0.4,0.4-0.7,0.7-1.1,1.1c0.2,0.1,0.4,0.2,0.7,0.3c-0.2,0.4-0.4,1-0.7,1.3c-1.9,1.6-3.9,3.2-5.9,4.8
		c-1.5,1.7-3.1,3.3-4.8,4.8c-1.7,1.9-3.5,3.8-5.2,5.7c-2.5,3.9-4.9,7.6-8.9,10.5c-1,0.7-2,0.9-3,0.7c-2.8,0.9-6,1-9.3,0
		c-1.8-0.5-3.9-0.2-5.8-0.3c-0.3,0-0.8-0.1-0.8-0.2c0.1-1,0-2.7,0.4-2.8c2.2-0.7,3.9-1.8,5.3-3.2c0-0.7,0.1-1.3,0.2-1.9
		c-0.7,0.5-1.8,0.8-2.7,1.2c-1.7-8.3,3.7-10.4,7.7-13.3c0.2-0.1,0.4-0.2,0.6-0.2c0.9-0.6,1.8-1,2.8-1.5c0.8-1,1.5-1.9,2.3-2.9
		c-3.4,1.9-6.8,3.7-10.1,5.7c-2.9,1.7-3.8,1.6-4.8-1.7c-1.3-4.5-3.2-8.8-7.6-11.6c-0.8-0.5-0.7-1.2-0.2-1.9c-0.9-0.5-1.7-1-2.6-1.3
		c-0.4-0.2-0.8-0.4-1.2-0.6c-3.8,0.2-8.6-2.2-12.8-0.3c-1.2,0.5-2.3,1.2-1.8,2.1c2,3.8-1,5.3-3.1,7.3c-0.1,0.1-1.9-1-2.5-1.8
		C678.6,342.2,676.8,338.5,680,335.7z M713.8,367.3C713.7,367.2,713.4,366.6,713.8,367.3L713.8,367.3z M547.6,429
		c-2.3-2.5-4.5-5-6.7-7.6c-0.1-0.1,0.4-0.7,0.7-1.3c3,1.4,5.7,2.8,8.5,4.1L547.6,429z M581.4,441.5c-7.7-6.7-17.7-6.6-26.8-9.2
		c-3.9-1.2-5.4-3.3-3.2-7c1.4-2.3,0.1-3.2-1.8-3.6c-11.8-2.3-15.9-11.8-18.7-21.4c-1.8-6-6.3-10.5-7.5-16.5
		c-0.2-0.8-0.2-1.7-0.3-2.6c0.7,0.3,1.7,0.4,2.1,0.9c5.6,6.4,11.1,12.8,16.6,19.2c0.6,0.7,0.9,1.5,1.4,2.2c-0.4-0.1-0.8-0.2-1.2-0.2
		c0.9,1,1.6,2,2.3,3.2c2.5,1.7,4.7,3.7,6.9,6.1c4,4.5,10.7,3.6,15.7,6.6c0.2,0.1,0.9-0.4,1.3-0.7c-0.5-0.9-1.1-1.7-1.6-2.6
		c-2-0.9-3.8-2-5.5-3.4c0.9,1.1,1.8,2.2,2.6,3.3c-2-1.1-3.9-2.4-6.1-3.2c-8.7-3.5-8-11.7-9.4-18.8c-0.4-1.7-0.6-3.3-1.1-5
		c-0.4-1.5-1-3-1.4-4.5c1.5,0.9,3.1,1.6,4.5,2.7c7.7,6.1,15.3,12.4,23.2,18.4c8.6,6.6,16.3,1.8,24.4-2c21.8-10.1,41-25.3,64-33.3
		c0.9-0.3,1.8-0.9,2.7-1.3c0.9-0.4,1.9-0.7,2.9-1c-0.6,0.8-1.2,1.7-1.8,2.5c-0.4,0.6-0.9,1.1-1.4,1.7c0.6-0.3,1.3-0.6,1.9-1
		c7-4.7,14-9.4,20.9-14.3c3-2.1,2.9-8.4,9.2-6.3c2.9,1,6.3,1,6.6,4.8c0.3,2.8,1,6.8-1.6,8c-2.9,1.3-5.6-2.1-8.4-3.5
		c-1-0.5-2-1.3-2.9-1.9c-0.2,1.8,1.4,2.2,2.4,2.9c1.3,0.8,2.6,1.8,4.1,2.1c7.1,1.3,2.7,6.8,3.9,10.2c-2.3-0.2-4.3-0.1-6.6,1.2
		c-12.7,6.7-24.4,15.7-34.1,25.4c-13.8,13.8-27.2,27.7-43.4,38.7c-7,4.8-13.8,11.1-23.5,9.9c-0.7-0.1-1.4-0.3-2.1-0.5
		c0.1-0.4,0.2-1,0.4-1.1c1-0.2,1.8-0.4,2.6-0.8c-0.5-0.5-0.9-1.1-1.1-1.8c-1.4,0.5-2.9,1-4.1,1.6
		C585.4,446.9,583.3,443.2,581.4,441.5z"/>
	<path class="st2" d="M713.8,367.3C713.4,366.6,713.7,367.2,713.8,367.3L713.8,367.3z"/>
	<path class="st2" d="M1676.7,455.5h-3.2c-0.6,0.1-1.2,0.4-1.8,0.5c16.2,0,32.5,0,48.7,0c-9.4-0.2-18.7-0.3-28.1-0.5
		c-0.2,0-0.3,0-0.5,0h-6.9C1682.4,456.2,1679.5,455.7,1676.7,455.5z"/>
	<path class="st2" d="M1532.8,456c4.7,0,9.5,0,14.2,0c0.3-0.2,0.6-0.4,0.9-0.5h-14.8C1533,455.6,1532.9,455.8,1532.8,456z"/>
	<path class="st2" d="M1691.8,453.9c8-6.1,15.3-12.8,18.8-22.8c3.4-9.8-1.6-17.6-5.9-25.4c-4.3-7.8-9.3-15.4-19.3-16.8
		c-15.3-2.1-30.1-1.4-43.9,7c-5.8,3.6-12.7,5.4-19,8.3c-30.5,13.6-57.4,34.7-90.2,43.7c-0.7,0.2-1.3,1-2,1.5
		c0.9,0.1,1.8,0.2,2.7,0.2c4.9,0,8.5-3.4,12.9-4.6c0.7-0.2,1.5-0.3,2.2-0.5c-0.6,0.5-1.1,1.1-1.8,1.5c-4.5,2.9-9.9,4.9-13.1,9.5
		h14.8c9.1-5.2,17.7-11.2,27.2-15.9c13.9-6.8,27.1-15,40.7-22.4c2-1.1,4.7-2.3,6.6-0.1c1.9,2.2,1.6,5.1,0.4,7.7
		c-4,8.7-9.7,16-17.8,21.3c-0.9,0.6-2.4,1.2-1.7,2.7c0.7,1.6,2.1,0.7,3.3,0.7c6.2-0.2,10-4.7,14.6-7.8c0.8-0.5,1.8-1.8,2.7-0.2
		c0.6,1.1,0.8,2.5,2.4,1.8c1.5-0.6,0.5-2.1,0.6-3.1c0.3-1.7-1.3-3.5,0.4-5c0.1,1.5,0.2,3.1,0.5,4.6c0.2,0.8,0.5,1.7,1.1,2.3
		c1.1,1.2,2.4,2.9,4.1,1.8c3.9-2.7,8.1-5.4,8.8-10.7c0.4-2.6-0.5-4.2-3.4-5.3c-2.8-1-5.5,3.3-6.2,1.4c-1.6-4.2,4-1,4.9-3.4
		c0.1-0.3,0.2-0.7,0.1-1c-1.5-3.5,1.6-3,3-3c1.5,0,3,1,4.6,1.5c4.5,1.2,7.4-1.9,9.8-4.5c1.2-1.2,2.2-5.6-0.2-6.9
		c-2.9-1.5-4.9,2-7.3,3.5c-0.9,0.6-3.1,0.6-3.8-0.1c-2.2-2.2-4.3-4.6-5.6-7.4c-0.7-1.4,1.9-1.5,3-1.9c4.1-1.6,8.2-3.4,12.4-4.6
		c8.4-2.3,16.5-8.4,25.7-2.3c0.1,0.1,0.8-0.3,0.8-0.3c-1.3-4.8,2.4-2.8,4.2-2.9c4.9-0.4,7.4,3.1,9.9,6.4c5.8,7.6,11.4,15.4,8.7,25.7
		c-2.6,9.8-7.9,18.3-14.6,25.6c-0.8,0.9-1.8,1.5-2.8,1.8h6.9c-0.5-0.1-1-0.2-1.6-0.3C1690.7,454.7,1691.3,454.3,1691.8,453.9z
		 M1630.9,419c-2.8-0.5-3.5-3.6-4-5.8c-0.4-2.1,2.7-3.8,3.8-3.1c2.2,1.4,3.7,4,5.5,6.2C1634.9,418.7,1632.6,419.3,1630.9,419z"/>
	<path class="st2" d="M1673.5,455.5C1673.5,455.5,1673.5,455.5,1673.5,455.5l3.2,0C1675.6,455.4,1674.5,455.3,1673.5,455.5z"/>
	<path class="st2" d="M1000.6,456H1140c0.1-0.2,0.2-0.4,0.3-0.5h-110.7C1019.9,455.6,1010.3,455.8,1000.6,456z"/>
	<path class="st2" d="M1138.7,454.6c0.8-0.5,1.5-1.1,2.3-1.6c8.1-5.3,16.6-9.8,25.3-14.1c24.7-12.4,49.6-24.3,76-32.8
		c25.6-8.2,37.9-0.8,46.7,22.7c0.4,1,0.9,2,1.4,3c0-1.1,0.1-2.1,0.1-3.2c0-1.1,0-2.2,0-3.2c0.6,0.9,1.4,1.7,1.7,2.6
		c2.5,7.1-2.5,13-3.3,19.5c-0.1,0.9,0.1,1.8,0.2,2.6c0.5-0.7,1.4-1.4,1.6-2.2c1-3.5,1.9-7,2.8-10.4c0.2-0.8,0.7-1.6,1.1-2.4
		c0.4,0.8,1.4,1.8,1.2,2.4c-1.5,4.5,4.3,8.1,1.6,12.7c-0.1,0.1,0.3,0.6,0.4,0.6c0.4-0.1,0.9-0.3,1.1-0.6c2.6-4.6,6.1-8.5,4.3-15
		c-7.6-27.8-24.4-41.6-53-39.8c-18.2,1.1-35,8.5-51,17.1c-19,10.2-38,20.4-56.9,30.9c-8.1,4.5-15.9,11-25,11.3
		c-27.2,1-54.4,0.6-81.6,0.8c-2.1,0-4.1,0-6.2,0.1h110.7c0.1-0.1,0.1-0.2,0.2-0.3C1139.9,455,1139.3,454.7,1138.7,454.6z"/>
	<path class="st2" d="M780.2,456c2.9,0,5.8,0,8.8,0c-0.1-0.2-0.2-0.4-0.2-0.5H780C780.1,455.6,780.1,455.8,780.2,456z"/>
	<path class="st2" d="M786.2,446.8c2.3,0.9,0.4,3.5,1.9,4.8c0.8,0.7,1.5,1.5,2.2,2.3c0.1-0.4,0.3-0.8,0.1-1.1
		c-3.7-7.1-3.2-14.1-0.3-21.4c5.6-14.4,7-30.9,23.1-39.5c19.1-10.2,38.4-12.2,54.3,7c15.8,19.1,33.3,36.5,51.6,53.1
		c0.6,0.5,1.5,0.8,2.3,1.1c0.1-0.5,0.4-1.2,0.1-1.5c-2.3-3.1-2.5-7.2-5.5-10.1c-16.1-15.2-29.7-32.9-45.1-48.7
		c-25.2-25.7-54.6-19.3-77.1,3.7c-3.9,4-8.6,8.1-6.6,16.6c1.4,6.1-4.3,13.6-6.4,20.6c-2.2,7.1-4,14.4-0.8,21.7h8.8
		c-0.2-0.4-0.3-0.8-0.6-1.1C785.9,452.2,785,449.8,786.2,446.8z"/>
	<path class="st2" d="M29.3,254.6c4.1,6.9,5.6,14.9,10.9,21c1.2,1.4,2.6,3.5,4.2,2.9c1.9-0.7,0.6-3,0.4-4.6
		c-1.1-10.4-8.9-17.2-14-25.4c-2-3.1-3.1-7.2-7.2-8.8c-7-2.8-13.8-6.2-20.9-8.4c-1-0.3-2-0.6-3-0.9v5.8c1.6,0.4,3.1,0.9,4.7,1.3
		C14.6,240.4,23.3,244.5,29.3,254.6z"/>
	<path class="st2" d="M746.3,456c8.6,0,17.1,0,25.7,0c-0.1-0.2-0.2-0.4-0.4-0.5h-25.6C746.1,455.6,746.2,455.8,746.3,456z"/>
	<path class="st2" d="M758.1,422.2c-0.6-0.8-1.8-1.7-2.7-1.8c-1.5-0.1-1.1,1.5-1.4,2.5c-2.2,8.7,1.9,16,5,23.6
		c0.4,1,0.9,1.9,1.3,2.9c-1-0.5-2-1-3-1.5c-1.9-0.9-4.3-3-5.6-2.4c-2,0.8-0.3,3,0.4,4.6c0.5,1.1-0.7,1.1-1.4,0.9
		c-5.1-1.6-6.7-0.1-4.8,4.5h25.6c-3.9-5.6-7.4-11.4-9.6-17.9C760.3,432.5,761.3,426.8,758.1,422.2z"/>
	<path class="st2" d="M15,454.6c0.8-0.4,1.8-2,1.5-2.5c-3.1-6.1-8-11.3-13.7-14.4c-1.1-0.6-2.1-1.1-3.2-1.5v8.4
		c4.3,2.7,8,6.1,12,9.2C12.8,454.6,13.9,455.2,15,454.6z"/>
	<path class="st2" d="M1295.4,456c4.2,0,8.4,0,12.6,0c-0.4-0.2-0.7-0.3-0.8-0.5h-8C1297.9,455.7,1296.6,455.8,1295.4,456z"/>
	<path class="st2" d="M1307.5,453c2.5-5.4,6-10.5,6.5-16.7c0.1-0.8-0.7-1.7-1.1-2.6c-0.3,0.3-0.9,0.6-1,0.9
		c-1.5,5.9-5.4,10.3-9.3,14.7c-1.2,1.4-2,3-3,4.5c1.4-1.2,2.8-2.5,4.2-3.7c0.7-0.6,1.5-1.2,2.3-1.7c-0.4,0.8-1,1.6-1.3,2.4
		c-1,3.2-3.3,4.1-5.8,4.5h8C1306.5,454.8,1307.1,454,1307.5,453z"/>
	<path class="st2" d="M19.8,107.5c-0.8-0.5-1.6-1.1-2.5-1.3c-5.9-1.6-11.8-3.4-17.8-4.6v1.7c5.9,0.8,11.7,2.2,17.4,4.2
		C17.9,107.6,18.9,107.5,19.8,107.5z"/>
	<path class="st2" d="M1592.4,456c1.3,0,2.6,0,3.8,0c0.1-0.2,0.1-0.4,0.2-0.5h-4.1C1592.3,455.6,1592.4,455.8,1592.4,456z"/>
	<path class="st2" d="M1596.6,455.1c2-0.2,3.5-1.2,4.5-2.9c-1.3,0.2-2.6,0.5-3.9,0.5c-0.4,0-0.8-0.9-1.1-1.4
		c-1.4-2.7-2.7-5.4-4.1-8.1c-1.9,3.2,0.6,6.5-0.2,9.7c-0.2,0.8,0.2,1.7,0.4,2.6h4.1C1596.5,455.2,1596.5,455.1,1596.6,455.1z"/>
	<path class="st2" d="M1317.3,456c1.6,0,3.3,0,4.9,0c0-0.2,0.1-0.4,0.1-0.5h-4.6C1317.6,455.6,1317.4,455.8,1317.3,456z"/>
	<path class="st2" d="M1328.1,444.6c-1.2-1-2,0.2-2.7,1c-2.6,3.3-5.1,6.6-7.7,9.9h4.6c0.8-3.3,3.6-5.2,5.4-7.8
		C1328.5,446.7,1329.3,445.6,1328.1,444.6z"/>
	<path class="st2" d="M1390,456c1.3,0,2.6,0,3.8,0c-0.1-0.2-0.1-0.3-0.2-0.5h-4.6C1389.4,455.6,1389.7,455.8,1390,456z"/>
	<path class="st2" d="M1393.1,454.3c-7.6-1-14.3-4.3-21.2-7.3c-0.3-0.1-0.7,0-1,0.1c0.3,0.3,0.5,0.6,0.8,0.9
		c5,4.3,11.8,4.4,17.4,7.5h4.6C1393.5,454.9,1393.3,454.3,1393.1,454.3z"/>
	<path class="st2" d="M1395.5,456c10,0,20.1,0,30.1,0c-1.4-0.2-2.8-0.3-4.2-0.5h-24.9C1396.1,455.6,1395.8,455.8,1395.5,456z"/>
	<path class="st2" d="M1396.4,455.5h24.9c-4-0.6-8-1.1-11.9-1.1C1405.1,454.4,1400.6,453.3,1396.4,455.5z"/>
	<path class="st2" d="M1985.6,456c1.6,0,3.3,0,4.9,0c0-0.2-0.1-0.4-0.1-0.5h-4.9C1985.6,455.6,1985.6,455.8,1985.6,456z"/>
	<path class="st2" d="M1987.1,446.6c-0.2,0.3-0.7,0.9-0.6,1c2.7,2.9-0.8,5.2-0.9,7.9h4.9c-0.4-2.4-0.8-4.9-1.4-7.3
		C1988.9,447.5,1987.8,447.1,1987.1,446.6z"/>
	<path class="st2" d="M2025,456c0.4,0,0.7,0,1.1,0c0-0.2,0-0.4,0-0.5h-1.8C2024.5,455.6,2024.8,455.8,2025,456z"/>
	<path class="st2" d="M2025.6,449.8c-1.4,1.6-4.4-0.7-5.4,2c-0.5,1.5,0.9,1.9,2,2.4c0.7,0.3,1.4,0.8,2,1.3h1.8
		c-0.1-1.1-0.1-2.3-0.2-3.4C2025.8,451.3,2025.7,450.6,2025.6,449.8z"/>
	<path class="st2" d="M1184.1,328.6c-15.6,0.7-28.6-3.7-37.4-17.4c-0.4-0.7-1.6-0.8-2.5-1.2c-1.9,4.3-2.9-0.2-3.5-0.7
		c-3.3-2.7-6-6.3-9.5-8.8c-18.9-13.2-38.9-24.1-62.1-28.2c-35.2-6.2-69-3.8-100.7,14c-20.5,11.6-40.9,23.3-61.5,34.7
		c-7.1,3.9-13,11-22.5,9.2c-0.2,0-0.5,0.5-0.7,0.8c4.4,2.8-0.8,2-1.2,3c-0.3,1-1.5,1.9-1.3,2.7c0.1,0.7,1.5,1.4,2.4,1.6
		c10,1.6,18.6,6.1,26.1,12.6c4.6,4,6.7,9.8,10.4,14.4c13.5,16.9,31.6,27.9,51.1,36.4c24,10.5,49.3,15.8,75.7,15.9
		c27,0.1,51.8-4.2,72.8-23.3c10.9-9.9,18.2-21.6,25.5-33.8c3.8-6.3,2.5-14.5,8.3-19.9c0.2-0.2,0-0.6,0-1c-0.5,0.2-1.2,0.2-1.6,0.5
		c-3.9,2.3-6.5,5.4-9.1,9.2c-5.1,7.7-11.3,14.7-17.1,22c-0.6,0.7-1.3,1.3-2,2c-0.5-0.7-0.9-1.5-1.5-2.2c-4-4.6,2.7-9.7-0.7-14.4
		c-1.2-1.7-0.8-3.5,0-5.4c2.3-5.6,3.7-11.3,2.2-17.4c-0.2-0.7-1.2-1.1-1.8-1.7c-0.2,0.6-0.8,1.2-0.7,1.7c1.4,4.8-0.5,9.3-1.7,13.8
		c-0.3,1-0.9,1.9-1.3,2.9c-0.8-0.7-1.7-1.3-2.3-2.1c-1.3-1.6-3.4-3.7-4.8-2.5c-1.7,1.4,1.2,2.8,2,4.2c2,3.6,6.1,7.7,5.5,10.8
		c-1,5-15.6,7.3-20.4,4.2c-1.1-0.7-2-2.3-3.4-1.1c-0.2,0.2,1,2.9,2,3.3c3.5,1.6,6.7,3.8,11.1,2.2c2.8-1,6.7-2.8,9,0.8
		c2,3,2.9,7.5,0,9.9c-10,8.3-19.9,17.2-32.5,21.8c-14.3,5.2-29.2,5.7-44.2,6.4c-7.4-0.6-14.9-0.9-22.3-1.9c-3-0.4-3.6-4.2-3.1-6.2
		c0.7-2.4,0.1-7.1,5.3-6.1c2.9,0.5,6.5,2.4,8.6,1.3c4.5-2.4,8.9-5,13.4-7.4c1.9-1,3-5.5,1.4-6.9c-2-1.6-2.2,2.3-3.6,3.4
		c-0.6,0.5-1.3,0.9-1.9,1.4c-0.3-1-0.5-2-0.8-2.9c-0.9-2.6-0.1-7.8-2.9-7.3c-3.6,0.6-0.1,4.4-0.1,6.7c0.1,6.7-2.1,11.1-9.8,9.7
		c-1.6-0.3-4.8,2.5-4.9-1.4c-0.1-2.9-1.5-4.4-3.4-6.3c-3.5-3.5-9.1-4.1-11.6-8.7c-0.7-1.2,0.6-4.1-1.6-3.8c-2.3,0.3-1.6,3.1-1.3,4.8
		c0.5,2.5,2.1,4,4.6,5.3c5.5,2.9,12.2,5.6,5.3,13.6c-1.9,2.2-1.5,5.3,0.1,7.9c0.3,0.4,0.3,1,0.5,1.5c-0.6,0.1-1.2,0.3-1.7,0.2
		c-16.8-3-33.3-7-48.1-16c-5.1-3.1-10.2-6.1-15.2-9.2c-3.9-2.5-10.9-3.3-5.1-11c1.9-2.5,2.9-5.4,5.7-7.4c3.7-2.5,7.9-3.1,12-4.1
		c1.3-0.3,2.4-0.9,1.8-2.4c-0.3-0.6-1.8-1.4-2.3-1.2c-3.1,1.3-6.7,0.8-9.7,3.1c-1.1,0.9-3.7,3.4-5.8,0.7c-0.5-0.7,0-2.4-1.5-2.3
		c-0.5,0-1.1,1.4-1.4,2.2c-1.4,3.4-2,6.9-1.7,10.7c0.1,1.1-1.9,3.1-3.2,3.5c-3.4,0.9-3-2.9-4.5-4.3c-8.1-7.6-15.8-15.5-19.6-26.4
		c-2.8-8.3-0.3-14.5,7.5-18.6c10.2-5.4,20.1-11.4,30.2-17c1.6-0.9,4.9-4.5,5.7,0.8c3.4,23.8,14.4,41,38.7,49.3
		c21.6,7.4,42.7,11.7,65.1,4.1c14-4.7,26.1-12,34.3-24c9.2-13.5,7-29.1,5.9-44.3c-0.1-0.9,0-1.8,0-2.6c0.9,0.3,1.9,0.4,2.7,0.9
		c16,8.3,28.5,21.2,42,32.7c4,3.4,11.5,4.7,9.2,12.7c-0.2,0.6,0.2,1.3,0.3,1.9c0.3-0.6,0.5-1.3,0.9-1.8c1.5-1.4-1.2-6.3,2-4.7
		c9.5,4.6,18.7,3.7,28.2,1.3c2.7-0.7,5.9-0.1,8.1-2.5C1190,327.8,1186.9,328.5,1184.1,328.6z M909.5,343.1c-0.5-0.2-1.1-0.2-1.4-0.5
		c-4.8-4.8-10.7-4.4-16.8-3.9c-0.9,0.1-1.9-0.5-2.8-0.7c0.8-0.3,1.7-0.7,2.5-1c0.1,0.3,0.3,0.6,0.4,0.9c5.3-2.6,10.7-5.2,16-7.7
		c0.5-0.3,1.2-0.4,1.8-0.5c0,0.7,0.1,1.3,0.1,2c-0.3,3.5-1.9,7.1,0.3,10.5C909.6,342.3,909.5,342.7,909.5,343.1z M1094.3,294.8
		c0,5.2-1.9,10.4-2.5,15.7c-2,16.3-11,27.6-25,35.5c-30.2,17.1-59.4,12.8-88-4c-14.9-8.8-16.6-24.1-18.1-38.9
		c-0.4-3.8,5.2-5.1,8.4-6.9c8.7-5.1,17.2-10.5,27-13.3c1.9-1,4.1-1.6,6.4-1.6c7.3,0,13.2,5.8,13.2,13.1c0,2.1-0.5,4.1-1.4,5.8
		c0.1,1.2-0.3,2.2-1.7,2.9c-0.2,0.1-0.4,0.2-0.6,0.3c-2.4,2.5-5.8,4.1-9.5,4.1c-1.1,0-2.2-0.2-3.2-0.4c-2.3-0.1-4.6-0.7-6.9-2.2
		c-0.6-0.4-1.2-0.9-1.5-1.5c-0.7-1.8-1.3-3.8-1.9-5.6c1.2,3-1.8,6.3,0.3,9c5,6.2-1.6,9.5-3.3,14.1c-0.4,1-2.2,2-1,2.9
		c1.2,0.9,3.2,1,4.5-0.4c1.4-1.6,2.6-3.4,3.9-5.2c0.7-1,0.3-3.3,2.3-2.5c1.8,0.7,3,2.4,2,4.7c-1.4,3.2-2.8,6.3-4,9.5
		c-0.4,1.1-1.2,2.7,0.3,3.4c1.5,0.7,3-0.2,3.8-1.8c0.9-1.9,1.8-3.8,2.4-5.8c0.8-3,1.9-2.8,5.2-3c10.6-0.5,3.3,7.2,5.6,10.2
		c0.5,0.7,0.6,1.6,1,2.4c0.5-0.8,1.2-1.4,1.4-2.3c0.8-3,1.4-6,2.3-8.9c0.2-0.7,1.1-1.4,1.9-1.8c0.4-0.2,1.5,0.1,1.7,0.4
		c0.7,1.3-0.5,1.2-1.2,1.4c3.5,2.8,0.2,8.5,4.6,10.9c0.6,0.3,2.1,0.2,2.1-0.1c0.2-0.9,0.2-1.9,0.1-2.8c-0.2-2.4-2.6-5.6,0.4-7
		c3.7-1.8,3.5,2.3,4.6,4.3c0.9,1.5,2.5,1.7,3.8,1.1c1.4-0.7,0.6-2-0.1-3c-2-2.7-0.1-4.1,1.9-5.3c2.7-1.7,2.1,1.3,2.9,2.2
		c1.2,1.3,2,3,3,4.5c0.7,1.2,1.4,1.8,2.8,0.8c1.2-0.9,1.3-1.6,0.5-2.9c-1.2-2.1-2.2-4.4-3.1-6.6c-0.7-1.7,0.5-2.7,1.7-3.6
		c1.3-0.9,2.3-0.4,3.3,0.6c2.8,2.8,5.6,5.7,8.5,8.4c1,0.9,2.7,1.5,3.7,0.2c1-1.3-0.9-1.8-1.5-2.7c-2.8-4.9-11-7.8-5.9-15.6
		c0.5-0.7,1.6-2.4,2-1c1.2,4.3,6,4.7,7.9,8.3c1,1.9,3.7,4.6,5.9,2.4c1.9-2-1.9-2.9-2.8-4.5c-1-1.7-2.5-3.1-3.7-4.7
		c-1.9-2.4-6.1-4.6-3.6-7.7c1.7-2.1,4,2.2,6.4,2.7c0.9,0.2,2.4,0.3,2.9-0.3c1-1,0.1-2-0.9-2.6c-9.1-5.4-15-14-22.1-21.5
		c-1.8-1.9-0.5-2,1.2-1.9c1.4,0.1,2.7,0.2,4.1,0.2c16.3,1,32.3,3.9,47.2,10.7C1099.9,289.2,1094.3,292,1094.3,294.8z"/>
	<path class="st2" d="M1678,158.2c-17.9-20.3-37.7-35.4-71.1-35.6c-9.3-0.4-22.2,3.7-34.5,10.2c-14.5,7.5-28.1,16.7-36.6,30.7
		c-10.5,17.3-8.3,35,1,52.7c7.7,14.8,19.3,24.2,35.3,27.6c19.9,4.2,52.6-19,50.5-41.4c-0.2-2.5,0.9-3.7,3.9-3.1
		c11.9,2.3,18.4,11.6,25.8,19.6c5.2,5.6,7.1,14.1,15.2,17.3c1.5,0.6,3.2,0.8,4.8,1.2c-1.2,2.2-3.5,1-5.1,1.7
		c-1.2,0.5-2.5,0.8-3.8,1.1c0.6,0.5,1.4,1.5,1.8,1.4c3-1.1,6.5,1,9.1-1.8c1.2-1.3,2.5-1.3,4.1-0.3c1.7,1.1,3.7,4.3,5.5,1.8
		c0.9-1.2-2.7-3-4.8-3.8c-6.2-2.7-10.9-9.3-11.1-15.6c0-0.3-0.6-0.7-1-0.7c-4.2-0.7-5.7-4.3-8-7.2c-7.3-9.2-14.8-19.2-27.2-20.7
		c-8.7-1-11.2-4.9-12.7-12.4c-4.1-19.9-24.9-30.4-43.8-22.6c-2.6,1.1-2.7,3.2-2.1,5.2c0.7,2.1,2.5,0.8,3.7,0.3
		c3.3-1.4,6.7-1.8,10.1-0.5c5.8,2.3,14.3,20,12.7,26.4c-0.1,0.4-0.7,1-1,1c-6.4-1.9-10.9,2.4-14.4,5.9c-5.9,5.9-2.3,11.5,3.4,15.5
		c3.9,2.8,7.4,0.7,10.7-2c10.1-8.3,8.5-24.6,4-34.8c-1.5-3.4-2-7.3-3-10.9c3.4,0.8,6.1,2.9,7.6,5.7c8,14.7,13.6,29.4,2.9,45.5
		c-5.6,8.4-13.2,14.2-22,17.8c-8.8,3.6-16.7,3.8-26.3-3c-24-17.1-26.7-33.8-17.1-55.2c7.9-17.5,24.4-29.1,42.6-36.3
		c18.8-7.4,38-7.5,57-0.4c2.4,0.9,4.5,3,6.7,4.5c-2.2-1.1-4.5-2.1-6.7-3.2c-0.2-0.1-0.5-0.3-0.7-0.3c-0.9-0.1-1.8,0-2.8-0.1
		c0.6,0.7,1.1,1.6,1.9,2c4.8,2.5,9.9,4.4,14.3,7.3c9.7,6.3,15.3,16.9,24.8,23.7c19.2,13.6,39.1,25,63.5,25.5
		c10,0.2,19.9,0.3,28.5-6.4c2.3-1.8,0.8-3.4,0.7-5c-0.2-1.7-1.8-2.1-3.4-2c-15.4,1.3-30.9,2.7-46.3-0.2
		C1706.2,180.7,1690.1,171.8,1678,158.2z M1590.3,206.2c-0.4,0.1-1.5-1.3-1.4-1.7c1.1-4.3,5.6-5.4,8.2-8.2c0.3,0.6,0.6,1.2,1.1,2
		C1596.2,201.6,1594.8,205.3,1590.3,206.2z"/>
	<path class="st2" d="M1684.4,81.3C1684.5,81.3,1684.5,81.3,1684.4,81.3L1684.4,81.3z"/>
	<path class="st2" d="M1703.3,16.4c-8.5-4.8-22.2-11.5-31.7-7.6c-5,2-9.7,4.8-14.1,8c-8.6,6.2-14.2,14.7-18.1,24.4
		c-3.7,9,5.1,19-2.6,28.1c-0.9,1.1-2.1,3.9-3.6,5.6c-1.5,1.7-4.9,2.5-3.1,5.6c1.8,3.2,4.7,1.5,7.3,0.8c2.5-0.7,4-4,6.9-3.1
		c8.1,2.4,16.9,2.3,24.1,7.6c0.5,0.4,1.1,0.7,1.7,1.1c-0.7,0-1.4,0.1-2.1,0.1c-5-0.5-9.9-1-14.9-1.4c-1.6-0.1-3.7-0.5-4.1,2
		c-0.4,2.5,1.8,2.8,3.3,3.6c6.3,3.3,13.3,2.2,20.1,2.9c1.8,0.2,4.6,1.5,5.3-1c0.5-2.1-2-3.3-3-3.8c5.3,0,11.3,0.1,17.2,0
		c10.4-0.2,16.6-6.7,23.3-13.7c7.5-7.7,11.3-25.4,5.8-34C1715.6,32.8,1714.2,22.6,1703.3,16.4z M1657.2,53.5c-3.2,0-5.8-2.6-5.8-5.8
		c0-3.2,2.6-5.8,5.8-5.8c3.2,0,5.8,2.6,5.8,5.8C1663.1,50.9,1660.5,53.5,1657.2,53.5z M1663.7,74.9c-0.4-0.2-0.7-0.6-1-1
		c0.4-0.3,0.8-0.9,1.2-1c4.6-0.7,6-5.5,9.8-7.2c-0.9-2.1-3.5-5.6-1.3-6.3c4.5-1.4,2.3-4.2,1.8-5.9c-0.8-2.7-1.9-4.6,1.2-6.7
		c1.5-1.1,0.9-3.8,0-5.6c-0.9-1.6-2.6-1.3-4.1-1c-1.5,0.4-2.7,0.4-1.3-1.7c0.2-0.3-1-1.5-1.7-2.1c-1.1-1-2.1-0.7-3,0.5
		c-0.4,0.6-1.2,0.9-1.8,1.4c-0.3-0.6-0.5-1.3-0.8-1.9c-0.3-0.6-1.1-1.5-1.2-1.5c-2.8,1.3-7.6,2.5-7.7,4c-0.3,4.1-3,4.2-5.4,5.3
		c-0.2,0.1-0.6,0-0.9,0c0-0.5,0-1.1,0.1-1.6c2.1-8.8,10.1-10.1,16.8-10.9c6.6-0.8,11.6,3.2,14.2,10.4c4.1,11.3,1.3,20.3-6.7,28.6
		c-0.5,0.5-0.9,2-0.6,2.5c0.8,1.4,2.2,2.2,4,1.5c8.5-3.2,12.7-10,13-18.3c0.4-11.8-4-27-19.2-30.1c-1.4-0.3-2.9-0.4-4.3-0.6
		c0,0.1,0,0.3-0.1,0.4c-1.3-0.2-2.7-0.4-4-0.6c0.9-0.9,1.7-2,2.8-2.6c6.8-3.9,13.3-9.1,22.2-5.9c3.1,1.1,4.5-3.9,8.7-3
		c7.9,1.8,9.8,8.3,13,13.8c10,16.8,9.7,30.7-3,40C1692.5,76.6,1679,82.6,1663.7,74.9z M1714.2,64.2c-7.2,8.9-14.4,18.2-30.7,16.9
		c0,0,0,0,0,0c0,0,0.1,0,0.1,0c0.5,0.1,0.7,0.1,0.9,0.1c0.1,0,0.1,0,0,0c-0.2,0-0.5-0.1-0.9-0.1c-0.1,0-0.1,0-0.1,0c0,0,0,0,0.1,0
		c0.9-0.4,1.7-1,2.7-1.3c14.3-4.6,26.8-11.1,30.2-27.5c0.1-0.4,0.5-0.8,0.8-1.2c0.3,0.4,0.7,0.9,0.8,1.3
		C1718.6,56.9,1716.8,60.9,1714.2,64.2z"/>
	<path class="st2" d="M1683.5,81.2C1683.5,81.2,1683.5,81.2,1683.5,81.2C1683.4,81.2,1683.4,81.1,1683.5,81.2c-0.1,0-0.1,0-0.1,0
		C1683.4,81.2,1683.5,81.2,1683.5,81.2z"/>
	<path class="st2" d="M1234.1,306.7c1.4-0.3,2.6-1.7,3.9-2.6c-1.4-0.4-2.8-1-4.2-1.1c-5.6-0.5-11.3-0.9-17-1.3
		c9.1,0.3,17.7-1.2,26.1-4.3c6.4-2.4,12.3-3.6,16.2,4c0.3,0.5,1.9,0.3,2.9,0.5c-0.1-1,0.1-2.1-0.2-3c-1.4-3.9-5.1-7.1-4.4-11.6
		c3.2-21.7-5.4-40-24.1-51c-0.8-0.1-1.4-0.5-2-1c-1.2-1-2.4-2-3.5-3.1c-0.4-0.2-0.8-0.4-1.2-0.7c-11.8-10.3-25.2-3.7-37.9-3.1
		c-5.1,0.2-7.7,8.1-14.2,8.3c-9.9,0.3-10,7.1-9.1,14.3c0.2,1.3,0,3.9,1.9,3.8c7.6-0.7,8.7,5,9.7,10c2.2,10.8,7.3,20.1,14.1,28.7
		c0.5,0.7,1,1.4,1.5,2.1c-0.9-0.2-1.7-0.4-2.6-0.6c-17.2-4.5-22.6-20.3-31.7-32.7c-0.5-0.7-1.3-1.2-1.9-1.8c0.1,0.9-0.2,2,0.2,2.7
		c5.3,11.1,9.4,22.8,16.4,33.1c4.9,7.3,8.2,16.2,18.5,18.2c0.8,0.1,1.7-0.4,2.5-0.6c-0.4-0.7-0.7-1.6-1.3-1.9
		c-7.2-4.7-11.7-11.5-15.4-18.9c-0.3-0.5-0.3-1.2-0.5-1.8c0.2,0,0.5-0.1,0.7,0c6.9,2.9,14.8,4.6,20.6,9
		C1209.4,308.4,1221.3,309.4,1234.1,306.7z M1245.5,252.1c2,2.7,4.7,5,5.3,9.2c-0.5,0.8-1.1,2-1.8,3.1c-1.8-3.2-4.3-6-4.4-9.9
		C1244.6,253.7,1245.2,252.9,1245.5,252.1z M1211.9,240.1c2.3-2.6,5.6-2.5,8.8-1.5c1,0.3,3,1.2,2,2.2c-0.4,0.4-0.8,0.9-1,1.4
		c2.5,0.4,4.4,2.5,4.4,5c0,2.8-2.3,5.1-5.1,5.1c-2.5,0-4.6-1.8-5-4.2c0,0-0.1,0-0.1,0c-1,0-2.7-0.9-2.6,1.2c0,1.6,1.3,2.5,2.8,2.3
		c3.1-0.4,3.9,1.7,3.9,3.9c0,2.7-2.5,1.6-4,2c-1.4-0.4-2.7-0.3-3.3,1c-0.2,0.5-0.1,1.6,0.3,1.8c1.7,1.3,3.6,2,5.9,1.3
		c1.2-0.4,2.4-0.8,3.6-1.2c-0.4,1.3-0.9,2.5-1.1,3.8c-0.2,1.2-1.6,2.7,0.5,3.4c1.9,0.7,1.9-1,2.4-2.1c0.6-1,0.6-2.9,2.4-2.2
		c1.4,0.5,2.5,1.6,1.6,3.4c-0.4,0.8-0.6,1.8,0.7,2.2c2.3,0.7,3.2-1.2,4.4-2.5c0.5-0.5,0.9-0.9,1.4-1.4c-0.1,0.6-0.2,1.3-0.3,1.9
		c-0.4,1.9-0.8,3.7,0.8,5.3c1.5,1.5-0.2,1.6-1,1.7c-9.3,1.4-17.6-0.3-23.5-8.2C1206.8,260.7,1207.7,244.9,1211.9,240.1z
		 M1177.7,240.3c-1.5,3.5-1,7.9-3.6,10.7c-3.7-0.4-5.2-2.1-4.8-4.6c0.6-4,2-7.5,7.1-7.5C1177.5,238.9,1178.1,239.4,1177.7,240.3z
		 M1197.6,290.4c-1.2-1.3-2.3-2.6-3.5-4c0,0,0,0,0,0c-1.3-1.4-2.5-2.8-3.6-4.3c-1.2-1.5-2.3-2.9-3.4-4.5c-0.2-0.3-0.4-0.6-0.6-0.9
		c0.2-0.1,0.4-0.2,0.5-0.2c-1.2-2.4-2.2-4.8-3-7.4c-1.7-6-2.3-12.3-2.4-18.5c-1.5-0.3-1.5-1.8-1.4-2.9c0.3-2.4-1.6-5.3,0.9-7.2
		c0.7-0.6,2-0.4,3.1-0.5c4.2-2.2,8.4-4.9,13.2-4.9c2.7-0.6,5.5-0.8,8.4-1c0.4,0,0.9,0,1.3,0c-0.2,0.7-0.3,1.3-0.5,2
		c-3.1,9.9-7.7,19.2-2.5,30.2c5.9,12.5,27.7,20,39.3,12.4c2.2-1.4,2.8-0.6,3.5,1.3c3.9,10.9-0.4,16.9-12.5,17.2
		c-2,0.7-4,1.2-5.9,1.7c-0.3,0.1-0.7,0.1-1,0.2c0.1,0,0.2,0,0.3,0C1218.7,302,1203.5,296.9,1197.6,290.4z"/>
	<path class="st2" d="M521.8,68.5c8.9-6.3,11.3-14.6,12.7-23c-0.3-8.4-1.1-15.5-7.1-20.9c-2.3-2.1-5.9-0.7-8-3.8
		c-3.1-4.7-7.7-8.4-7.5-14.8c0.1-1.8-0.2-4.7-3.4-5c0.1,1.8,0.2,3.6,0.4,5.3c0.1,1.2,0.1,2.4,0.2,3.7c-1.2-0.3-2.4-0.5-3.5-0.9
		c-6.9-2.4-13.8-4.4-21.3-3.7c-18.1,1.8-27.6,12.5-32.5,29.1c-2.9,9.8-4.7,20.2-11.2,28.5c-3.6,4.5-3,8.5,0.5,11.7
		c2.6,2.5,6.7,5.1,9.3-0.9c0.7-1.6,1.9-3,3.8-2c8.9,4.5,17,10,27.7,11.1c9.3,0.9,17-2.4,24.7-5.5C511.9,75.3,516.9,71.9,521.8,68.5z
		 M521.6,41.3c1.6-0.1,1.8,1.6,2.1,3.6c-0.3,0.6-0.8,1.6-1.4,2.7c-1.5-1.4-3-2.7-4.5-4.1C519.1,42.7,520.3,41.4,521.6,41.3z
		 M454.2,64c-2,2.9-5.1,5.1-7.9,7.3c-0.7,0.6-2.7-1.1-2.1-1.7c2.4-2.4,1.6-7.4,6.5-8C452,62.3,455,62.9,454.2,64z M487.6,72.4
		c-6.8,0.4-13.5,0.5-20.2-1c-1.1-0.2-2.2,0.1-1.4-1.3c0.7-5.3-5.2-5.5-6.5-8.6c-2.4-5.7-2.6-12-1.7-18.5c1.1-7.7,6.1-13.5,8.6-20.4
		c0.2-0.5,0.5-1,0.8-1.4c9.8-12.6,35.8-13.8,44.4,2.2c0.4,0.8,0.5,1.7,0.7,2.5c-0.9,0.1-1.9,0.3-2.8,0.1c-8.6-1.3-17-2.5-23.6,5.3
		c-8,9.5-9.8,20-5.7,31.5c1.3,3.6,4.6,5.9,8,7.7c0.6,0.3,1,0.9,1.4,1.4C488.9,72.2,488.2,72.4,487.6,72.4z M498.3,53.5
		c-1.2,2.4-3.7,0.3-5.6,0.2c-0.8,0-2,0.3-2.3,0.8c-0.6,1.2,0.6,1.4,1.5,1.7c0.3,0.1,0.7,0.2,1,0.4c2.7,1.6,7.4,1.5,7.7,4.7
		c0.2,2.6-4.8,0.1-6.6,2.4c-0.4,0.5-1.1,0.6-1.6,0.9c0.8,0.4,1.5,1,2.3,1.2c0.9,0.2,2,0,2.9,0.2c2.3,0.4,4.6,0.8,6.9,1.2
		c-0.4,0.3-0.8,0.9-1.2,1c-3.8,0.5-6.8,5.3-11.4,1.4c-5.6-4.7-9.5-10.1-9.9-19.2c-1.1-4.7,5.1-9.1,4.8-15.3c0-0.1,0.5-0.2,0.8-0.4
		c8.9-4.2,17.8-7.4,25.2,2.5c0.3,0.4-0.1,1.4-0.2,2.2c-0.5-0.4-1.1-0.7-1.5-1.1c-0.9-1.1-1.6-2.9-3.3-2.1c-0.6,0.3-0.9,2.3-0.7,3.4
		c0.3,1.8,0.3,3.2-0.1,4.2c0,0.1,0,0.3,0,0.4c0,3.6-2.9,6.5-6.6,6.5c-1.6,0-3.1-0.6-4.2-1.6C497,50.7,498.7,52.6,498.3,53.5z"/>
	<path class="st2" d="M494.1,46.4c-0.3-0.7-0.5-1.5-0.5-2.3c0-0.1,0-0.2,0-0.4C492.8,44.6,493.4,45.5,494.1,46.4z"/>
	<path class="st2" d="M917.6,275.3c4.5-1.6,7.5-7.1,13.7-6.6c2.1,0.2,4.6-2.4,4.5-4.8c-0.3-9.3-0.1-18.8-3.3-27.8
		c-0.1-0.4-0.6-0.6-0.9-1c-0.1,0.1-0.3,0.4-0.2,0.4c3,3.3-2.2,8,2,11.5c1.1,0.9,2.1,4.3-1.1,5.6c-1.1,0.4-2.6,1.7-3.4-0.4
		c-1.1-2.8-5-4.8-2.2-8.6c0.4-0.6,0.7-1.2,1-1.8c-0.3,0-0.7-0.1-0.8,0.1c-2.4,2.2-4.3,4.4-3.2,8.1c2.3,7.4-3.1,16.5-10.1,19.4
		c-9.6,3.9-19.6,5.3-29.7,6.7c-1.9,0.3-4-0.6-6-1c1.4-0.5,2.7-1.1,4.1-1.6c1.3-0.5,2.6-1,3.9-1.3c17-4.6,25.6-19.5,23.3-32.1
		c-0.1-0.6-0.7-1-1.1-1.5c-0.3,0.5-0.9,1.1-0.9,1.5c0.5,3.9-1.7,6.9-3.1,10.2c-0.4,1-1.9,2.7-2.2,2.6c-3.6-1.8-1.8,1.4-1.9,2.2
		c-0.2,1.7-0.1,3.3-1.5,4.7c-8.2,8.2-27,14.2-38.8,8.1c-6.2-3.2-4.8-9.5-3-14.6c1-2.7,3.9,0.4,5.9,0.9c3,0.8,2.1,4.2,3,6.4
		c0.5,1.1,1,2.1,2.3,1.7c0.7-0.3,1.5-1.3,1.6-2.1c0.2-1.7-2.5-4.1-0.4-4.7c2.3-0.7,2.2,2.9,3.5,4.3c1.1,1,1.8,2.9,3.7,1.9
		c0.6-0.3,1.2-2,1-2.4c-1.4-1.9-4.2-4.2-1.5-5.8c2.7-1.6,3.5,2.8,5.2,4.3c1.2,1.1,2.1,3.1,3.9,1.8c1.9-1.4,0-2.6-0.7-4
		c-1.1-2.1-4.7-3.8-2.3-6.7c1.6-1.9,2.9,0.8,4.4,1.3c1.8,0.5,3.2,4.3,5.3,1.3c2.2-3.2-2.2-3-3.2-4.7c-0.5-0.8-1.8-1.2-2.6-1.9
		c-0.3-0.4-0.1-1.3-0.2-1.9c0.6,0.1,1.3,0,1.7,0.3c1.9,1.4,4.1,4.6,6,1.9c1.9-2.7-2.6-3-3.8-4.8c-0.8-1.3-3.3-1.5-2.8-3.5
		c0.1-0.4,2.7-0.2,4.2-0.1c1.7,0.1,3.4,0.4,3.7-1.9c0.4-2.8-1.9-1.8-3.1-2.1c-2.5-0.7-5.5-0.1-7.4-2.5c2.3-1,4.5-2.1,6.8-3.1
		c0.2-0.1,0.3-0.1,0.5-0.1c1.4-0.3,2.9-0.5,2.6-2.5c-0.3-1.9-1.8-2.1-3.4-2.3c-4.7-0.6-8.2,3.3-12.7,3.1c-1.1,0-2.2-0.7-3.3-1.1
		c0.2-0.4,0.2-0.9,0.5-1c6.1-3.2,12.6-5.1,19-1.5c5.3,3,13.1,4.1,12.3,13c-0.1,0.9,0.3,1.9,0.5,2.9c0.3-1,0.8-2,0.7-3
		c-0.3-4.2,0.8-5.3,4.6-2.6c1,0.7,2.7,0.5,4.1,0.6c0.1,0,0.5-1.1,0.3-1.3c-5.9-5.2-11.1-12.7-18.1-15.1c-20.6-7.1-25-2.3-38.8,13.6
		c-4.4,5-6.5,11.7-14.6,12.5c-4.8,0.5-11,0.4-9.4,6.5c0.7,8.4,3,13.6,10.6,14.1c3,0.2,5,0.7,5.3,4.2c0.3,3.4,3,5.1,5.4,7.1
		C876.7,290,897.4,282.5,917.6,275.3z M875.2,229.1c3.2,0,5.8,2.6,5.8,5.8c0,3.2-2.6,5.8-5.8,5.8s-5.8-2.6-5.8-5.8
		C869.4,231.7,872,229.1,875.2,229.1z M845.8,258.3c-2.5-0.8-5-1.7-5.3-4.8c0-0.4,0.8-1.1,0.9-1.1c2.9,1.6,5.7,3.2,8.5,4.8
		C848.6,257.7,847.2,258,845.8,258.3z M850.9,253.2c0,0.3-1.5,1-2.1,0.9c-2.7-0.7-5.5-1.7-6.6-4.5c-0.5-1.2,0.6-2,1.9-2.4
		c3.3-1.1,3.9-5.6,7.7-6.1c0.7-0.1,1.7-1.2,1.9,0.8C851.8,245.1,851.1,249.1,850.9,253.2z"/>
	<path class="st2" d="M1033.6,235.5c5.1-5.3,11.6-8.3,18.1-11.3c1.5-0.7,3.2-1.1,4.9-1.4c2-0.4,2.3,0.6,1.4,2.1
		c-0.8,1.4-1.3,2.8-1.5,4.2c2.4,0.1,4.3,2,4.3,4.3c0,1.5-0.8,2.9-2,3.7c0.4,0.5,0.9,0.9,1.4,1.1c2,0.3,3.9,0.4,5.9,0.3
		c0.7-0.2,1.4-0.3,2-0.5c0.5-0.1,1-0.1,1.5,0c1.4-0.4,2.8-0.9,4.1-1.7c0,0,0.1-0.1,0.1-0.1c0.4-0.7,0.9-1.4,1.3-2.1
		c0.6-1.1,0.7-2.4,0.9-3.2c-0.1-0.8-0.1-1.2-0.2-1.6c-0.6-2.1-1.2-4.2-1.8-6.3c2.6,1.4,5.1,3.4,7.9,4c5.7,1.3,8.1,5.5,10.5,10
		c1,1.8,1.3,3.6,0,5.3c-1.9,2.5-4.4,4-7.3,5c-0.1,0-0.3-0.2-0.5-0.4c0.3-0.2,0.6-0.4,0.9-0.6c2-1.9,5.1-3.4,3-7.1
		c-2.1-3.5-4.4-1.5-6.9-0.4c-0.3,0.1-0.6,0.2-0.9,0.4c-4.7,5.1-12.3,6.7-19.8,5.9c-3,0.3-6.2-0.1-9.3-0.5c-4.4-0.6-8.6-2-7.1-8.1
		c0.3-1.3,0.1-2.8,0.1-4.2c-0.4,1.3-0.8,2.6-1,3.9c-2.1,11.5-0.2,13.7,13,15.1c0.3,0,0.6,0,0.8,0.1c0.7,0.2,1.3,0.5,2,0.7
		c-0.5,0.4-1,1-1.6,1.3c-3.7,2-6.5-1.1-9.8-1.8c-0.5-0.1-1.1,0.1-1.7,0.1c0.4,0.3,0.9,0.5,1.3,0.8c1.4,1.1,4.9,1,4.2,2.9
		c-0.8,2.2-4.2,2-6.6,2c-1.2,0-2.5-0.7-3.7-0.6c-2.1,0.2-5.3-2.3-5.8-0.1c-0.4,1.8,3.6,1.9,5.8,2.3c3.2,0.5,7.3,2,9.4,0.6
		c4.5-3,8.8-6.6,14.1-6.9c5.5-0.3,11-0.5,16.4-1.9c10.1-2.6,15.6-8.4,13.3-14.2c-4.9-12.6-17.4-21.2-33-21.5
		c-10.7,1.7-23.6,2.7-30.3,16.2c-0.7,1.5-1.7,3-0.7,4.6C1031.5,237.3,1033,236.2,1033.6,235.5z"/>
	<path class="st2" d="M1104.4,247.6c-1.3,2.1,0.4,3.9,1.6,5.5c3.4,4.6,8.8,5.4,13.9,6.6c0.7,0.2,2.6-0.2,1.1,1.6
		c-0.4,0.5-0.7,1-1.1,1.5c0.8,0.1,1.7,0.6,2.4,0.3c5.7-1.9,10.3-4.3,14.9-9.3c5.4-6,7.6-12.1,8.7-19.3c0.3-7.5-8.3-16.6-16-16.5
		c-3.6,0.1-7.4,0.3-10.9,1.4c-14.1,4.6-17.2,10.5-13.2,24.4c0.6,2.1,1.4,4,4.1,4.9c2.9,1,5.3,3,8,4.6c-3.4,0-6.1-1.6-8.7-3.7
		C1107.8,248.5,1104.6,247.3,1104.4,247.6z M1107.2,238.3c0.2-2.9,1.3-6.5,5.4-8.3c0.6-0.3,1.4-0.5,1.9-0.3c0.3,0.1,0.5,1.2,0.3,1.7
		c-0.1,0.1-0.2,0.3-0.3,0.4c0.5,0.4,1,1,1.2,1.6c0.7-0.8,1.7-1.3,2.8-1.3c2,0,3.7,1.6,3.7,3.6c0,0.5-0.1,1-0.3,1.4
		c0.1,0,0.2,0,0.3,0c0.1,0,0.1,0,0.2,0c0.2,0,0.5-0.1,0.7-0.1c0.5-0.1,1-0.2,1.6-0.4c1-0.3,1.9-0.6,2.9-1c0,0,0,0,0.1,0
		c0.2-0.1,0.5-0.2,0.7-0.3c0.4-0.2,0.8-0.4,1.2-0.6c0.4-0.2,0.7-0.4,1.1-0.7c0.1-0.1,0.3-0.2,0.5-0.4c0.2-0.4,0.4-0.7,0.6-1.1
		c0.6-1.1,0.7-2.6,1-3.9c1.2,1.4,2.4,2.9,3.7,4.3c1.1,1.1,0.1,4.4,2.5,3.5c1.8-0.6,1.2-3.4,1-5.2c-0.2-1.6-0.9-3.1-1.3-4.7
		c2.3,1.7,3.4,3.9,3,7.4c0.2,0.5,0.5,1.5,0.8,2.6c0.1-1,0.1-2,0.2-3c0.1-0.5,0.2-0.9,0.4-1.4c0.4,0.5,1,1,1,1.5
		c0.3,3.5-0.8,6.8-2.9,9.2c-1.2,1.3-2.6,2.4-4.3,3c-1.6,2-3.8,3.4-6.3,4c-0.4,0.4-0.8,0.8-1.3,1.1
		C1120.7,255.6,1107.3,248.5,1107.2,238.3z"/>
	<path class="st2" d="M364.3,27.8c-3.2-7.2-4.2-15.6-7.8-23c-2-4.2-5.6-4.4-9.5-3.6c5.4,1.3,5.2,6.5,6.5,10.3
		c3.5,10.1,10.3,20.3,7.2,31c-6,20.4-14,40.3-16.6,61.7c-0.1,0.7,0,1.5,0,2.3c0.4-0.4,0.7-0.9,1.1-1.3c6-5.8,8.7-13.3,9.4-21.1
		C356.5,65,373.7,49,364.3,27.8z"/>
	<path class="st2" d="M977.3,236.5c0.2-0.2,0.6-0.3,0.6-0.6c1.8-7,8.1-10.1,12.9-14.5c0.5-0.4,2.8-0.9,2.1,0.1c-0.7,1-0.9,2.1-1,3.2
		c0.1,0,0.1,0,0.2,0c2.4,0,4.4,1.6,4.4,3.6c0,1.1-0.6,2.1-1.6,2.8c0.2,0,0.3,0.1,0.5,0.1c0.1,0,0.1,0,0.2,0c0,0,0.1,0,0.2,0
		c0.4,0,0.8,0.1,1.2,0.1c0.7,0.1,1.4,0.2,2.1,0.2c0.4,0,0.7,0,1.1,0.1c1.5-0.8,2.9-1.6,4.3-2.5c0.5-0.9,1.2-1.6,2-2.1
		c-0.3-1.5-0.5-3-0.6-4.6c0-0.6-1-1.1-1.6-1.7c0.3-0.3,0.8-0.9,0.9-0.8c0.8,0.5,1.7,1,2.2,1.7c1,1.6,1.9,3.1,2.8,4.7
		c0.4,0.2,0.8,0.4,1,0.7c1.2,1.5,2,3.2,2.5,5c0.5,0.9,1.1,1.8,1.6,2.7c0.6,1,1.5,2.4,3,1.6c1.5-0.8,1.2-2.3,0.6-3.6
		c-2.1-4.4-4.3-8.8-6.4-13.1c-0.2-0.4-1.5-1.4,0.2-1.4c5.1,0.2,11.6,13.5,9,18.3c-0.8,1.4-3,2.1-2.4,4.2c1.4-1.4,3-2.8,4.2-4.4
		c0.7-0.9,1-2.4,0.9-3.6c-0.4-8.3-12.6-19.5-21.1-19.5c-4.8,0.2-9.5,1.5-13.6,3.8c-6.8,4-15,7.3-13.4,17.7
		C976.7,235.4,977.1,236,977.3,236.5z"/>
	<path class="st2" d="M1055.8,429.2c-22,2-44.1,5.2-65-5.9c-0.8-0.4-2.2,0.3-3.2,0.5c0.4,0.9,0.5,2.1,1.1,2.8
		c3.6,4.1,8.3,6.3,13.5,7.8c2.9,0.8,8.3,1.4,8.4,2.5c0.6,8.2,7.1,5.6,11.5,6.6c0.6,0.1,1.7-1.2,2.4-2.1c0.2-0.2-0.5-1.4-1-1.6
		c-1.9-0.6-4.2-0.5-5.4-2.6c2.1-0.1,4.3-0.1,6.4-0.2c1.3,0,2.6,0,5,0c8.4-0.5,18.1,0.3,27.1-4c1.6-0.8,4.2-1.1,3.7-3.3
		C1059.8,427.8,1057.3,429.1,1055.8,429.2z"/>
	<path class="st2" d="M1270.9,380.4c-9.7-0.9-19.2-0.5-28.6,2.5c-8.2,3.2-16.4,6.4-24.6,9.7c-0.3,0.1-0.4,0.8-0.6,1.3
		c0.5-0.1,1.1,0,1.5-0.2c4.9-1.7,9.7-3.9,14.7-4.9c6-1.3,12.1-4,18.3-4c1.9-0.5,3.8-1,5.7-1.3c3-0.4,6,0.3,8.9,0.8
		c2.8,0.5,5.6,0.8,8.4,1.4c2.8,0.6,5.6,1.8,8.1,3.2c5,2.7,9.6,6.7,13.2,11c3,3.6,5.6,7.5,8.6,11.1c0.2-0.6,0.3-1.1,0.2-1.6
		C1301.6,394.7,1286.4,381.8,1270.9,380.4z"/>
	<path class="st2" d="M1987.2,241.8c-0.5-1-2-2.2-2.8-2.1c-2.3,0.4-4.6,1.3-6.8,2.3c-0.2,0.1-0.1,2,0.4,2.4c5.5,4.3-1.2,4.1-2.2,5.9
		c-1.1,1.9-2.3,3.8-3.4,5.7c0,0,0.4,0.4,0.5,0.4c4.1-3.5,2.2,1.6,3.1,2.5c0.2,0,0.4,0.1,0.7,0.1c-0.3,0.1-0.5,0-0.7-0.1
		c-0.9-0.1-1.9-0.3-3.3-0.5c-4.5,1.1-8.3,3.7-10.2,8.5c-1,2.3-0.6,4.6,2.2,5.6c2.7,1,3.5-1.2,4.7-2.9c2.1-3,4.3-6,8.7-2.8
		c0.6,0.5,2.1,0.2,3.1-0.2c0.4-0.1,0.7-1.4,0.5-2c-0.7-2,0.1-1.9,1.6-1.5c1.4,0.3,3.1,1.1,3.8-1.1c0.6-1.9-0.7-2.3-2.1-3
		c-1.3-0.7-2.3-2.3-3.1-3.7c-0.3-0.4,0.5-1.4,0.7-2.1c1.1,0.9,2,1.9,3.2,2.6c0.7,0.4,1.6,0.6,2.5,0.6c0.3,0,0.9-1,0.9-1.1
		C1985.9,251,1989.3,246,1987.2,241.8z"/>
	<path class="st2" d="M1976.8,259c-0.2,0-0.4-0.1-0.7-0.1C1976.2,259,1976.4,259.1,1976.8,259z"/>
	<path class="st2" d="M711.2,227.6c-0.7-0.8-1.9-1.1-2.9-1.6c-0.2,0.6-0.7,1.3-0.6,1.9c2.5,16.1-0.2,31.8-3.1,47.5
		c-0.3,1.4-2.2,3.5-0.3,4.3c2.2,0.8,3.3-1.6,4.3-3.3c6.4-10.3,7.4-21.8,7.4-34.9C716.8,237,715.2,231.9,711.2,227.6z"/>
	<path class="st2" d="M526.6,81.2c-1.6-1.1-2.2,1.3-3.3,2c-0.7,0.4-1.3,0.9-2,1.3c0.2-0.8,0.2-1.6,0.5-2.4c0.6-1.5,0.3-2.9-0.8-3.7
		c-1.4-1-1.9,0.7-2.8,1.4c-8.1,6.6-15.7,14.5-27.9,11.7c-0.7-0.2-1.7,0.7-2.6,1.1c0.7,0.6,1.2,1.4,2,1.7c6.9,3.1,15.3-1.2,21,4.6
		c9-1.2,12.8-6.9,15.4-13.7C526.5,84,528.3,82.4,526.6,81.2z"/>
	<path class="st2" d="M1239.1,225.3c10.2,7.6,20.7,15.1,21.7,29.3c0.3,4-0.5,8.1-0.9,13.5c0,0,0,0,0,0c0.1,0.2,0.2,0.8,0.4,1.3
		c0.4-0.8,1-1.6,1.1-2.4c0.5-4.7,0.8-9.5,1.1-14.2c0.1-0.7,0-1.4,0-2c0.5,0.6,1.1,1.1,1.5,1.7c4.5,6,1.9,12.6,1.6,19
		c0,0.8,0.2,1.6,0.4,2.4c0.4-0.7,1-1.3,1.1-2.1c0.9-5.5,1.6-11,0.8-16.6c-2-14.5-12.2-23.3-22.5-31.9c-1.3-1.1-3.7-1.2-5.6-1.5
		c-1-0.2-2.6-0.3-2.5,1.2C1237.3,223.8,1238.3,224.7,1239.1,225.3z"/>
	<path class="st2" d="M1259.9,268C1259.9,267.9,1259.9,267.9,1259.9,268L1259.9,268z"/>
	<path class="st2" d="M657.8,329.8c-4.4,3.9-8.8,7.7-14.8,9.2c-9,2.2-18.1,1.2-27.1,0.2c-1-0.1-2.1,0.1-3.1,0.1c0.6,1,0.9,2.5,1.9,3
		c5.8,3.7,12.6,2.6,17.4,3.5c13,0.3,23.3-1.6,28.5-13.4c0.5-1.1,0.7-3,0.1-3.7C659.6,327.6,658.6,329.1,657.8,329.8z"/>
	<path class="st2" d="M780,360.1C780.4,360.3,780.3,360.2,780,360.1L780,360.1z"/>
	<path class="st2" d="M828.8,335.8c-1.2-1.7-2.6,0-3.8,0.6c-14.8,7.5-27.2,20-45,21.5c-0.6,0.1-1.2,1.1-1.8,1.7
		c0.7,0.2,1.4,0.4,1.8,0.5c0,0,0,0-0.1,0c21,0.9,33.7-11,47.5-20.4C828.7,338.9,829.8,337.2,828.8,335.8z"/>
	<path class="st2" d="M1160.2,312.2c-10.8-8-18.8-18.5-26.3-29.3c-1.7-2.4-4-4.3-5.9-6.4c-3.4,1.1-2,3.3-1.3,4.3
		c8.7,13.3,17.1,27,31.6,35c1.1,0.6,2.7,3.1,4,0.8C1162.7,315.7,1161.4,313.1,1160.2,312.2z"/>
	<path class="st2" d="M1738.7,208.3c-7.2-1.3-12.1-8.9-20-9.3c-2.9,0.4-6,0.2-7.4,3.2c-0.4,0.8,0.1,2.8,0.8,3.3
		c1.3,0.9,3.2,1.7,4.6,1.4c9.1-2.3,17.3,2,19.6,10.7c0.5,2,1.8,3.4,4,3.5c2.1,0.1,1.7-1.7,2.3-3
		C1744.8,213.4,1746.6,209.8,1738.7,208.3z"/>
	<path class="st2" d="M1166.5,354.4c-0.4-0.5-0.7-0.9-1-1.2c-0.6,0.6-1.3,1.2-1.7,1.9c-9.2,15.6-17.3,31.8-30.3,44.8
		c-0.6,0.6-1,1.6-1.5,2.3c1-0.3,2.1-0.4,2.9-1c10.3-7.2,18.5-16.2,23.7-27.7C1161.4,367.3,1163.9,360.9,1166.5,354.4z"/>
	<path class="st2" d="M1890.4,283.4c-7.6-1.4-14.6-3.6-18.9-10.7c-0.9-1.5-2.4-2.2-4-1.4c-1.8,0.9,0.1,2.2,0.1,3.2
		c0,1.8,0.1,3.6-0.5,5.2c-0.9,2.6-0.3,4.8,1.6,6.3c2.2,1.7,2.8-0.7,3.7-2.1c0.6-0.9,1.3-0.6,1.7,0.2c2.4,5.6,9.3-0.7,11.9,4.5
		c1.7-1.3,2.2-0.2,2.8,1.2c0.6,1.3,1.7,2.1,3.3,1.6c1.3-0.3,1.7-1.2,1.7-2.8C1892.5,287.3,1893.3,284,1890.4,283.4z"/>
	<path class="st2" d="M839,356.5c-11.1,0.9-21.4,4.9-31.4,9.9c-2.4,1.2-7.8,0.6-6.5,3.9c1,2.6,6,0.1,9-1c9.7-3.4,19.2-7.3,29.5-8.9
		c2.4-0.4,7.1-0.1,6.8-2C846.1,355.6,841.9,357.2,839,356.5z"/>
	<path class="st2" d="M726.4,259.2c-0.4,0.4-1,0.6-1.6,0.8c0.2-0.5,0.4-1.1,0.6-1.6c0.3-1.2,0.6-2.5,0.8-3.7c-0.5,0-1.2-0.1-1.5,0.1
		c-5.1,6.3-10.4,12.5-13.1,20.5c0.4,0.8,0.9,2.1,1.1,2.1c1.1-0.3,2.5-0.6,3-1.4c5.9-10,16.6-15.5,23-25.1c0.4-0.6,0.6-1.3,0.8-1.9
		c-0.8,0.2-1.7,0.1-2.2,0.5C733.7,252.7,730.1,256,726.4,259.2z"/>
	<path class="st2" d="M822.9,321.8c2.3,0.9,3.8-1.5,4.5-3.4c3.2-8.1,5.4-16.5,5.8-26.6c-0.6-2-1.4-5.3-2.4-8.5
		c-0.2-0.7-1.3-1.1-2-1.6c-0.1,0.4-0.3,0.8-0.2,1.2c1.7,12-2.6,22.9-5.7,34.1C822.5,318.6,820.7,320.9,822.9,321.8z"/>
	<path class="st2" d="M1760.2,316.7c3.8-0.4,6,1.7,2.8,5.8c-1.3,1.6-2.2,3.3-4.4,4.1c-1.3,0.5-2.1,1.8-1.4,3.4
		c0.8,1.8,2.4,1.3,3.5,0.6c4.5-2.9,9.8-8.1,8-12.1c-2.6-5.6-8.6-10.1-14.8-13.7c-0.9,0.8-2.1,1.4-2,1.9
		C1752.5,311.7,1751.8,317.6,1760.2,316.7z"/>
	<path class="st2" d="M1633.8,282.6c3.4,2.2,4.9-1.3,7.3-2.5c0.8-0.4,1.8-0.4,2.7-0.6c-0.4,0.8-0.7,1.7-1.3,2.3
		c-1.3,1.4-2.1,2.9-0.8,4.6c1.1,1.4,3,2,4.4,1.2c2.4-1.5,5.6-3.1,6.2-5.3c0.8-2.8-2.1-4.1-5.2-3.4c-0.1,0-0.5-0.7-0.4-1
		c0.5-4.2-2.3-4.7-6.4-5c-3.1,0.7-6,2.9-7.9,6.4C1631.6,280.7,1632.6,281.8,1633.8,282.6z"/>
	<path class="st2" d="M927.1,384.4c-4.7-3.6-8.9-8-15-10c-0.6,0.4-1.5,0.6-1.9,1.2c-0.3,0.5-0.1,1.6,0.3,2
		c8.7,6.9,16.4,15.1,26.7,19.8c0.7,0.3,1.9-0.6,2.8-1c-0.4-0.8-0.5-1.9-1.2-2.4C935,390.7,931.1,387.5,927.1,384.4z"/>
	<path class="st2" d="M1321,259.1c-1.4,0.7-2.7,1.4-4,2.2c0.6-1.2,1.2-2.3,1.7-3.5c0.6-1.7,1.5-3.6-1-4.5c-1.2-0.5-2.5-0.6-2.6,1.2
		c-0.8,7.6-4.2,13.4-11.4,16.7c-0.7,0.3-1,1.5-1.4,2.3c0.8,0.4,1.6,0.8,2,1c4.5-0.5,7.3-3.2,10.3-5.2c4.2-2.8,8.1-6,12-9.3
		c0.7-0.6,0.7-3.2,0.4-3.3C1324.4,255.8,1323,258.2,1321,259.1z"/>
	<path class="st2" d="M1002.5,242.3c-7.4,1.9-15.2,1.8-21.7-3.8c-0.4-0.4-1.1-0.4-1.7-0.6c0,0.6-0.1,1.2,0,1.8
		c2.9,9.4,11.3,8.3,16.9,9.5c5.5,0.2,9.2-0.1,12.2-3.2c0.6-0.6,1.4-0.9,2.1-1.4C1007.5,245.3,1006.5,241.3,1002.5,242.3z"/>
	<path class="st2" d="M1714.7,8.7c-2.8-1.9-5.4,0.7-7.4,1.7c-1.2,0.6,1.9,2.7,3.2,3.6c3.8,2.5,4.5,6.3,4.7,10.3
		c0.5,1.6,0.9,3.2,1.4,4.9c0,0.1,0.8,0,0.9,0c0.1-1,0.3-2.1,0.3-3.2c0.1-1.1,0-2.2,0.1-3.3c0.9,0.7,1.9,1.4,2.7,2.3
		c0.9,0.9,1.7,2.5,3,1.5c0.9-0.6,1.8-2.4,1.5-3.4C1723.3,17.2,1720,12.1,1714.7,8.7z"/>
	<path class="st2" d="M1454.1,247.8c-10.2,5.3-19.8,11.4-26.6,20.9c-0.7,1-2.1,2.5-0.8,3.6c1.5,1.3,3-0.3,4-1.2
		c7.6-7.1,14.8-14.6,24.3-19.3c1.2-0.6,1.8-2.4,2.7-3.6c-0.6-0.3-1.3-0.5-1.7-0.7C1455.1,247.5,1454.5,247.5,1454.1,247.8z"/>
	<path class="st2" d="M2004.4,94.6c-2.1-4.9,3.6-9.8,0.5-14.3c-1.9-2.7-2.6-4.2-1-7.2c0.5-1-1.3-3.3-2-4.9c-3,0.9-4.2,3-5,5.2
		c-1,2.6-2.5,6.5,0.1,7.7c4.8,2.2,2.4,5.3,2.6,8.2c0.1,1.7,0.4,3.6,1,5.2c0.3,0.7,1.6,1.1,2.5,1.3
		C2003.4,95.9,2004.5,94.8,2004.4,94.6z"/>
	<path class="st2" d="M907.2,310.2c0.3,0.6,1.2,0.9,1.8,1.4c1.4-0.5,2.6-0.8,3.8-1.3c12.8-6,23.2-15,33-24.8c0.4-0.4,0.4-1,0.6-1.5
		c-0.6,0.2-1.4,0.3-1.9,0.7c-11.7,8.6-23.6,16.8-36.3,24C907.7,308.9,907,309.9,907.2,310.2z"/>
	<path class="st2" d="M395.8,189.7c2.5-0.1,5.8-1.6,5,3.6c0.2,1.7-0.3,4,2,5.2c2.3,1.2,3.4-0.7,4.8-2c0.6-0.6,1.9-1.1,2.5-0.9
		c0.7,0.2,1.3,1.5,1.3,2.3c0.2,2.6,1.7,3,3.7,2.6c2.1-0.4,2.1-2.2,1.3-3.4c-4.4-5.9-11-8.4-17.6-10.6c-1.9-0.6-5.8,2.4-4.5-3
		c0.2-1-1-0.8-1.5-0.1c-1.3,1.8-0.9,3.7-0.2,5.7C393.3,191,394.7,189.7,395.8,189.7z"/>
	<path class="st2" d="M688.7,296.2c-4.4,5.8-8.6,11.6-12.9,17.4c-0.6,0.8-1.7,1.4-0.8,2.7c0.9,1.3,2.3,2,3.5,1.2
		c7.1-4.8,10.9-12.1,14.9-19.5c-0.8-1.4-1.4-2.6-2-3.7C690.5,294.9,689.3,295.4,688.7,296.2z"/>
	<path class="st2" d="M1690.1,188c0.2-3.7-7.9-6.7-12.8-4.6c-1.9,0.8-3.2,1.8-3.5-1.6c-0.2-2.1-2.1-3.5-4.3-4
		c-0.6-0.1-1.9,0.4-1.9,0.5c0.2,1.4,0.1,3.2,0.9,4c2.7,2.5,4.8,5.1,6.2,8.8c1.1,3,4.5,2.1,6.7,0.1c2.1-1.9,3.4-5.6,7.1-1.9
		C1689.3,189.9,1690,188.9,1690.1,188z"/>
	<path class="st2" d="M1699.2,201.3c0.5,1.1-1.6,3.5,1.6,3.5c2.8,0,2.8-2.1,2.8-4.8c-0.9-8.7-10-3.9-14.4-7.3
		c-0.3-0.2-1.2-0.1-1.4,0.1c-1.5,2.6-3.9,5.6-1.7,8.4c2.1,2.8,5.4,2,8.5,0.7C1696,201.3,1697.6,198.2,1699.2,201.3z"/>
	<path class="st2" d="M1990.6,47.8c3.5-2.7,6.9-6,12.4-4.5c0.6-0.3,2-0.4,2.3-1.1c0.3-0.6-0.3-1.8-0.9-2.5c-2.2-2.8-4.8-4.8-8.6-3.3
		c-4.5,1.8-8.2,4.5-10.6,8.7c-0.4,0.6,0.8,2.5,1.7,3.3C1988.1,49.5,1989.4,48.7,1990.6,47.8z"/>
	<path class="st2" d="M837.7,290.8c-0.2-0.6-1-1.1-1.5-1.6c-0.4,0.7-1.1,1.5-1,2.1c1,9.5-1.3,18.2-5.4,26.7
		c-0.5,1.1-0.5,2.5-0.7,3.7c1.3-0.7,2.9-1.1,3.9-2.1c5.4-5.5,5.7-12.7,6.6-20.7C839.1,296.7,838.5,293.7,837.7,290.8z"/>
	<path class="st2" d="M454.5,136.3c0.4,0.8,0.6,1.8,1.3,2.4c5.2,4.5,11,8.3,15.2,13.9c0.4,0.6,1.8,0.6,2.7,0.5
		c0.3,0,0.7-1.2,0.7-1.8c-0.4-6.8-10.1-15.7-17.9-15.9C456.2,135.5,455.3,135.9,454.5,136.3z"/>
	<path class="st2" d="M2016,139.7c1.1-1,2-2.9,0.8-4.5c-0.4-0.5-2-0.7-2.6-0.3c-3.2,2-6.2,4.2-9.3,6.5c-3.1,2.3-2.9,5.6-2.1,8.8
		c0.5,2,2.2,2.7,4.2,2.7c1.1-0.1,3.3,0,2.8-1.1C2006.9,145,2012.5,143,2016,139.7z"/>
	<path class="st2" d="M1648.5,291.8c-0.7,2.3,1.7,1.1,3,1.1c0.1,0,0.3,0.6,0.1,0.8c-2.4,3.9,0.7,2.7,2.3,2.3c3.9-1,5.9,0,5,5.1
		c0.2,0.7,0.3,2.7,1.1,3.1c1.1,0.5,2.9-0.1,4.3-0.6c2.3-0.9,4.4-2.1,6.6-3.3c1.1-0.6,3.6-0.4,2.7-2.5c-0.8-1.9-3.2-1.9-4.5-0.9
		c-7.9,6.3-8.4-3.2-12.3-5.5c-1.2-0.7-2.4-3-3.1-2.8C1651.7,289.2,1648.9,290.3,1648.5,291.8z"/>
	<path class="st2" d="M1162.1,311.6c0.4,0.1,0.8,0,1.2,0c0-0.6,0.2-1.3,0-1.8c-3.4-8.6-8.4-16.1-15.4-22.2c-0.4-0.4-1.1-0.5-1.6-0.8
		c-0.2,0.5-0.4,0.9-0.4,1C1146,292,1158.6,310.3,1162.1,311.6z"/>
	<path class="st2" d="M2010.3,136.7c0.6-0.2,0.9-0.9,1.4-1.3c-0.6-0.1-1.2-0.2-1.8-0.3c-0.9-0.1-1.8-0.2-2.8-0.3
		c0.5-0.8,0.8-1.9,1.6-2.4c1.7-1.2,3.6-2.4,5.6-3.3c1.5-0.7,3.7-1,3.3-3.2c-0.4-2.1-2.6-1.5-2.7-1.5c-5.2-0.8-7,1.7-9.5,4.1
		c-3.1,2.9-5.5,6.7-3.6,9.7C2003.6,141,2007.4,137.7,2010.3,136.7z"/>
	<path class="st2" d="M1167.2,378.7c-6.3,4.4-12.9,8.5-17.9,14.5c-1,1.2-1.9,3-0.5,4.1c1.3,1.1,2.9,0.1,4.1-1
		c2.9-2.6,5.8-5.2,8.6-7.9c2.7-2.6,5.2-5.3,7.7-8C1168.9,379.3,1169.1,377.4,1167.2,378.7z"/>
	<path class="st2" d="M1508.8,396c0.1,2,0.4,4.1,2.5,4.6c2.4,0.6,2.5-2,3.3-3.2c2.1-3,3.9-1.9,6-0.2c1.3,1,1.5,4.6,3.9,2.8
		c2.5-1.8,0.7-4.1-0.7-6.1c-1.8-2.7-4.4-3.6-8.2-3.6c-0.7,0.1-2.2,0.2-3.5,0.7C1509.9,391.8,1508.6,393.4,1508.8,396z"/>
	<path class="st2" d="M958,243.8c2.8-0.1,1.4-5.3,2.7-8.8c-1.4-5.3-2.9-11.1-4.5-16.9c-0.1-0.4-0.9-0.7-1.3-1
		c-0.3,0.6-0.9,1.3-0.8,1.9c0.4,5.8,0.7,11.7,1.5,17.4C956,239.1,954.3,244,958,243.8z"/>
	<path class="st2" d="M1273.6,281.2c1-1,2.6-1.8,2.9-3c2-7.9,4.1-15.9,3.9-24.2c0-0.7-0.7-1.3-1-1.9c-0.5,0.5-1.2,0.9-1.3,1.5
		c-2,8.3-3.9,16.7-5.7,24.9C1272.8,279.6,1273.2,280.4,1273.6,281.2z"/>
	<path class="st2" d="M1760.1,343.1c-0.6,0.8-0.7,1.9-1.1,2.8c1,0.3,2.3,1.1,2.9,0.8c7-3.4,11.4-0.8,14.3,5.8
		c0.3,0.7,1.5,1.1,2.3,1.4c0.2,0.1,1.1-0.9,1-1.3c-1.5-7-5.1-11.8-13-12.2C1764.2,340.8,1761.7,340.9,1760.1,343.1z"/>
	<path class="st2" d="M540.5,50.6c-0.8,0.5-1.6,1.1-2,1.8c-3.1,6.3-6.1,12.6-9.1,18.9c-0.3,0.6,0.1,1.6,0.1,2.4
		c1-0.2,2.1-0.2,2.9-0.8c7.3-5.1,6.8-13.7,9.4-21.3C541.4,51.4,540.6,50.5,540.5,50.6z"/>
	<path class="st2" d="M2016.3,197c-2.8,0-5.6,2.2-5.6,5.5c-0.1,3.2,0.9,7.3,4.7,7c2.4-0.2,4.7-3.5,6.9-5.3
		C2021,200.6,2020.1,196.9,2016.3,197z"/>
	<path class="st2" d="M835.5,228.9c0.6,1,2.1,1.5,2.6,1.8c4.2,0.1,14.7-11.3,14.3-14.8c0-0.4-0.5-1-0.5-1c-0.6,0.2-1.2,0.4-1.6,0.8
		c-4.3,3.6-8.6,7.2-12.8,10.8C836.6,227.2,834.6,227.3,835.5,228.9z"/>
	<path class="st2" d="M1854.8,257.6c-3.9-1.2-13.3,6.3-13.1,11c0.4,0.4,1,1.8,1.8,1.9c1,0.2,2.5-0.4,3.3-1.2c2.1-2.2,4-4.5,6.8-6
		c1.2-0.6,1.5-3,2.1-4.7C1855.8,258.4,1855.2,257.7,1854.8,257.6z"/>
	<path class="st2" d="M1270.8,257.1c0.5,1.6,1.1,3.3,1.7,4.9c0.5-1.8,1-3.6,1.1-4.2c0.3-9.3-3.9-15.9-7.3-22.7
		c-0.2-0.5-1.2-0.7-1.8-1c0,0.7-0.2,1.5,0,2.1C1266.5,243.2,1268.7,250.1,1270.8,257.1z"/>
	<path class="st2" d="M1529.8,437.7c0.4,0.1,0.9,0.2,1,0.3c5.5-0.1,32.2-10.1,36.8-13.8c0.4-0.3,0.6-1,0.9-1.5
		c-0.8,0-1.8-0.4-2.5-0.1c-11.8,4.8-22.8,11.5-35.4,14.3C1530.3,437,1530.1,437.4,1529.8,437.7z"/>
	<path class="st2" d="M1987.6,134.7c-0.7-0.5-1.6-1.5-2-1.3c-4.6,1.9-9.2,4.1-11.1,9c-1,2.6,1,3.9,3.8,4.5
		C1981.3,142.9,1984.5,138.8,1987.6,134.7z"/>
	<path class="st2" d="M2000.4,62.7c-2.2-2.9-4.7-6.7-7.7-10.1c-0.9-1.1-2.6-0.2-2.9,1.6c-1,6.1,4.4,8.7,7.4,12.5
		C1998.6,68.3,2000.2,65.9,2000.4,62.7z"/>
	<path class="st2" d="M1959.5,50.1c-4.8,2.5-7.2,6.9-8.6,11.9c0.8,1.4,0.1,3.7,2.3,4.2c0.7,0.2,2.4-0.7,2.4-1.1
		c0.4-5,4.1-8.5,5.5-13c0.2-0.6,0-1.4-0.1-2C1960.9,50,1959.9,49.9,1959.5,50.1z"/>
	<path class="st2" d="M442,46.6c0.5-0.5,1.3-0.9,1.5-1.4c2-7,3.8-14.1,5.5-20.2c-0.5-2.6-0.2-4.4-2-5.2c-0.2-0.1-1.2,0.8-1.3,1.4
		c-1.5,7.8-3,15.6-4.4,23.4C441.1,45.1,441.7,45.9,442,46.6z"/>
	<path class="st2" d="M814.1,351.1c-0.4,0.2-0.7,0.7-1.1,1.1c0.4,0.2,0.8,0.5,0.9,0.5c8.9-0.7,16-4.8,23.1-8.9
		c0.3-0.2,0.4-0.7,0.5-1.1c-0.7-0.2-1.6-0.7-2.2-0.4C828.3,345.1,821.2,348.1,814.1,351.1z"/>
	<path class="st2" d="M1708.4,206.8c-3.9,1.1-9,0.4-11.2,4.5c-0.9,1.7,0.9,4.7,3.1,4.9c6.4-0.2,6.9-5.5,9.8-8.5
		C1709.6,207.4,1708.9,206.7,1708.4,206.8z"/>
	<path class="st2" d="M1427.3,410.8c-0.3-0.9-0.4-2.1-1.1-2.6c-2.8-2.3-6.1-3.1-9.6-2.9c-2.9,0.2-8-2-8.1,1.7
		c-0.1,4,5.1,2.8,8.4,2.5c2.6,0.4,5.3,0.9,7.9,1.3C1425.6,411,1426.4,410.8,1427.3,410.8z"/>
	<path class="st2" d="M334,100.2c-0.5,0.6-1.2,1.2-1.3,1.8c-0.9,4.8-1.7,9.5-2.5,13.8c0.4,2-0.3,4.2,1.8,4.3
		c1.7,0.1,1.9-1.8,2.4-3.4c1.5-4.8,1.3-9.7,0.5-14.6C334.9,101.5,334.4,100.9,334,100.2z"/>
	<path class="st2" d="M1396.7,398.1c-4.3,1.1-10-0.7-12,5.1c-0.4,1.3,0.8,2.7,3.4,2.6c3.2-2.5,8.8-1.8,11.7-6
		C1400.3,399,1397.9,397.8,1396.7,398.1z"/>
	<path class="st2" d="M2025.1,146.1c-3.6,1.2-7.3,2.4-8.4,6.6c0.7,2.6,2.6,6.6,4.1,5.3c2.9-2.4,4.2-6.8,5.9-10.5
		C2027.1,146.6,2026.1,145.7,2025.1,146.1z"/>
	<path class="st2" d="M1971.5,124.5c4.6-1.3,5.1-5.2,4.7-9.3c0-1.5-0.3-3.6-2.1-3.4c-6,0.7-3.7,6.3-5.3,9.7
		C1968.4,122.5,1969.9,124.9,1971.5,124.5z"/>
	<path class="st2" d="M440.2,28.5c-0.6,0.6-1.5,1.2-1.6,1.9c-1,5.6-1.8,11.2-2.7,17.4c0.2,0.9,0.5,2.3,0.8,3.7
		c0.5-0.3,1.3-0.5,1.4-0.8c1.2-6.6,2.4-13.2,3.5-19.9C441.6,30.1,440.7,29.2,440.2,28.5z"/>
	<path class="st2" d="M1977.3,131c1.5-0.9,2.4-2.5,3.6-3.9c0.1-0.1-0.3-0.8-0.6-0.9c-2.4-1-4.7-0.1-6.7,1.1
		c-2.3,1.3-4.2,3.1-4.7,6.1c0.7,1.5,1.1,3.5,3.3,3.7c0.6,0.1,2-1.2,1.9-1.7C1973.5,132.7,1975.4,132.2,1977.3,131z"/>
	<path class="st2" d="M1239.2,341.3c-3.8,1.9-9.4,1.7-10.4,7.3c-0.4,1.8,1.4,1.7,3.3,1.8c3.5-1.3,8.7-1.4,8.4-7.7
		C1240.4,341.8,1240.3,340.7,1239.2,341.3z"/>
	<path class="st2" d="M963.8,237.1c4.5-1.9,3.7-6.5,3.9-7.4c0.9-5.2-0.7-8.5-1.7-7.8c-4.5,3-1.7,8.5-3.2,12.8
		C962.4,235.6,962.5,237.7,963.8,237.1z"/>
	<path class="st2" d="M1772.9,361c0.9,0.8,1.6,1.7,2.6,2.4c1.8,1.3,4,2,4.9,4.4c0.5,1.3,1,3.6,3,2.6c1.6-0.8,2.2-3.1,1.4-4.8
		c-1.6-3.4-4.8-4.9-8.5-6.1C1775.2,359.9,1774.1,360.5,1772.9,361z"/>
	<path class="st2" d="M427.5,201.7c3.1-1.5,6.3-3.2,7.3-6.8c0.5-1.7-1.6-3-3-2.7c-3.5,0.9-5.6,3.6-6.4,5.8
		C424.7,201.2,426.8,202,427.5,201.7z"/>
	<path class="st2" d="M1354.7,373.7c-2.7-1.7-5.4-0.8-7.9,1c-1.1,0.8-3,1.2-2.3,3.2c0.6,1.6,2.3,1.8,3.7,1.6c3.3-0.6,6.4-4.4,10-0.5
		c0,0,0.4-0.2,0.9-0.5C1357.5,376.7,1356.4,374.8,1354.7,373.7z"/>
	<path class="st2" d="M832.9,225.6c2.6-3.3,5.3-6.5,7.9-9.9c0.6-0.7,0-1.4-0.7-1.3c-3.3,1.9-6.4,3.8-9.6,5.6
		c-0.5,0.3-1.6,0.1-1.8,0.4C826.6,224.9,833.1,222.6,832.9,225.6z"/>
	<path class="st2" d="M1305.3,256.3c4.3-1.5,3-6.4,3.7-10.1c0.4-2-1.6-3.7-2.7-3.3c-3.3,1.5-1.5,5-2.3,7.6
		C1304.9,252.5,1303.7,256.9,1305.3,256.3z"/>
	<path class="st2" d="M1503.6,391.8c2.5-0.6,6.8,0.5,7.2-2.6c0.4-2.9-3.4-2.7-6-2.8c-1.6,0.5-4.4-1.1-4.6,2.3
		C1500,391.1,1501.6,392.3,1503.6,391.8z"/>
	<path class="st2" d="M1947.8,28.7c-4.6,2.2-5.7,6.5-6.5,10.9c-0.1,0.3,0.8,1.2,1,1.1c5.3-1.6,5.1-6.4,6.4-10.7
		C1948.5,29.6,1947.9,28.7,1947.8,28.7z"/>
	<path class="st2" d="M1833.1,240.8c-2.6,0.3-5.2,1-5.4,4.2c-0.2,2.2,1.8,2.6,3.6,3c2.8-0.3,4.4-2.1,4.8-4.5
		C1836.4,241.7,1834.9,240.6,1833.1,240.8z"/>
	<path class="st2" d="M677.2,305.7c4.5-3.8,6.1-9.3,8.3-14.4c0.1-0.3-0.1-0.8-0.2-1.2c-0.5,0.3-1.2,0.6-1.5,1
		c-2.9,4.6-5.7,9.2-8.5,13.8c-0.2,0.4,0,1.1,0,2.1C676.4,306.3,676.8,306,677.2,305.7z"/>
	<path class="st2" d="M1527.7,371.3c2-3.2,3.6-6.8,5.1-10.3c0.1-0.3-1.4-1.9-1.7-1.8c-4.3,1.6-3.4,5.8-4.6,8.9
		C1526.9,369.4,1527.4,371.7,1527.7,371.3z"/>
	<path class="st2" d="M1723.1,284.5c3.4-0.9,6.6-2.1,9.9-3.2c-1.3-2.9-4.4-1.2-6.1-2.5c-2.8,0.4-5,1.3-5.6,4
		C1721.1,283.2,1722.6,284.6,1723.1,284.5z"/>
	<path class="st2" d="M1314.8,452c3.3-1.8,6.5-3.8,7.3-7.8c-0.3-1.2-0.8-3.5-1.4-2.8c-2.7,2.8-4.8,6.1-7.1,9.3
		C1313.6,450.8,1314.7,452.1,1314.8,452z"/>
	<path class="st2" d="M1045.9,376.9c-0.3,0.4,0.5,1.6,0.8,2.3c4.5-2.5,8.8-2.4,11.1-6c0.1-0.1-1.3-1.5-1.6-1.4
		C1052.6,373.2,1048.4,373.5,1045.9,376.9z"/>
	<path class="st2" d="M1656.8,165.3c-1.2,0.1-2.4-0.2-2.3,1.6c0.2,4.3,3.8,3.3,6.2,3.9c1.6,0.4,2.8-0.2,2.6-1.8
		C1662.8,165,1658.9,166.5,1656.8,165.3z"/>
	<path class="st2" d="M1345.9,369.6c0.7,0,1.5-1.9,1.8-3c0.8-4.1-2.2-4.7-5.6-5.5c-0.7,0.4-1.6,0.9-2.5,1.5c0.8,0.8,1.4,1.7,2.3,2.4
		c0.9,0.7,2.6,0.1,2.9,1.9C1344.9,367.9,1344.2,369.7,1345.9,369.6z"/>
	<path class="st2" d="M1361.3,381.7c-2.5,0.1,1.2,2.4,0,3.8c1.3,2.2-5.2,4.5,0,6.3c1.8,0.6,3.9-2,3.9-4.4
		C1365.2,384.7,1363.8,381.5,1361.3,381.7z"/>
	<path class="st2" d="M1767,216.6c-1.6-0.3-2,1.7-2,3c0.1,2.3,0.4,4.6,3.5,4.8c2.1,0.1,2.6-1.3,2.9-3.1
		C1770.9,219,1769.5,217,1767,216.6z"/>
	<path class="st2" d="M397.6,54.7c-1.8,0.4-4.4,0.6-4,2.8c1.4,6.5,5.9-1.3,8.3,1.6c0.4-0.4,1.3-0.9,1.3-1.1
		C402.4,55,399.8,55.3,397.6,54.7z"/>
	<path class="st2" d="M400.9,27.9c-0.2,0,1.2-0.4,0.9-1.7c-0.6-2.9-2-5.4-5.5-5.7c-1-0.1-2.2,0.4-1.7,1.4
		C395.6,24.3,395.7,27.7,400.9,27.9z"/>
	<path class="st2" d="M925.3,401.3c-0.7,0.5-1.2,0.9-1.8,1.3c2.7,2,5.4,4,8.3,5.8c0.2,0.1,2.1-1.5,2-1.9
		C932.5,402.6,928.4,403,925.3,401.3z"/>
	<path class="st2" d="M1838.3,249.6c-2.2-0.2-2.6,1.4-2.7,2.7c-0.1,1.7,0.4,3.8,2.5,3.8c2.5,0,4.4-1.9,4.5-4.2
		C1842.8,248.6,1839.3,251.1,1838.3,249.6z"/>
	<path class="st2" d="M1753.6,207.2c-1.9-0.2-2.6,1.4-2.4,2.9c0.3,2.4,1.8,4.2,4.3,4.4c1.4,0.1,2.1-1.2,2.1-2.3
		C1757.4,209.4,1756.3,207.5,1753.6,207.2z"/>
	<path class="st2" d="M1485,304.3c-2.9,0-10.9,13.1-9.7,15.5c0.1,0.2,0.3,0.4,0.5,0.5c0.3-0.4,0.8-0.8,1-1.2
		c2.6-4.8,3.9-10.4,9.3-13.3c0.1-0.1,0.2-0.6,0.1-0.7C1485.8,304.8,1485.3,304.5,1485,304.3z"/>
	<path class="st2" d="M1452.4,331.4c-1.3-0.3-1.7,1.1-1.5,2.1c0.5,2.4,0.1,5.5,3.4,6.1c1.5-0.1,3-0.2,2.6-1.6
		C1456.1,335.4,1455.7,332.2,1452.4,331.4z"/>
	<path class="st2" d="M1438.2,316.4c-0.4-1.7,0.4-5-2.8-5.1c-2.2-0.1-2.3,2.7-2.5,4.5c-0.3,2.1,1.3,2.9,3.3,3
		C1437.5,318.9,1438.6,318.5,1438.2,316.4z"/>
	<path class="st2" d="M1835,236.3c0.1-1.3-1.7-3.4-3-2.7c-2,1.1-5.7-0.4-6,2.5c-0.3,2.6,3,1.6,4.7,2.5
		C1832.2,237.7,1834.9,238.8,1835,236.3z"/>
	<path class="st2" d="M1460.3,334.7c-1-0.3-2,0.4-1.7,1.5c0.7,2.6,1.3,5.3,4.8,5.7c1.2,0.2,2.2-0.4,2-1.5
		C1464.9,337.5,1463.2,335.5,1460.3,334.7z"/>
	<path class="st2" d="M1922.1,271.5c0.7,3.2-0.2,7,3.3,9c0.1,0.1,0.9-1,1.6-1.9c-1.2-3.1-2.4-6.2-3.6-9.3
		C1922.9,270,1922,270.9,1922.1,271.5z"/>
	<path class="st2" d="M1539,352.4c2.6-1.1,5.2-2.3,7.5-4c0.4-0.3-1.4-1.4-3.4-1.5c-2.1,0.4-4.3,1.9-6,4.1
		C1537.7,351.6,1538.6,352.6,1539,352.4z"/>
	<path class="st2" d="M1644.4,294.3c-1.8,1.4-4.2,2.6-5,4.5c-0.6,1.4,2,1.6,2.8,1.9c5.4,0.7,2.5-3.5,3.8-5.1
		C1645.9,295.5,1644.5,294.2,1644.4,294.3z"/>
	<path class="st2" d="M1245.4,411.7c-1.7,0.3-4.3-0.2-4.5,2.4c-0.1,1.7,1.5,2.7,3.1,3c1.9-0.4,4-0.4,4.1-2.8
		C1248.3,412.5,1247.1,411.4,1245.4,411.7z"/>
	<path class="st2" d="M1957,73.3c-2.7,1-3.1,3.6-4.1,6c0.5,1,0.1,3,1.7,2.6c3.7-1,1.7-5.1,3.5-7.2
		C1958.2,74.6,1957.2,73.3,1957,73.3z"/>
	<path class="st2" d="M396.7,50c-0.9-2.8-2.2-4.7-4.8-5.1c-0.5-0.1-1.8,1.5-1.7,2.2c0.4,2.7,2.5,3.8,5,4
		C395.7,51.3,396.3,50.4,396.7,50z"/>
	<path class="st2" d="M1740.1,273.2c0.1,0,0.2-0.1,0.3-0.1c-0.4-0.3-0.7-0.7-1.1-0.9c-4.1-1.5-8.7-1.7-12.3-4.6
		c-0.4-0.3-1.2-0.1-1.8-0.1c0.3,0.5,0.6,1,1,1.4C1729.9,272.2,1734.4,273,1740.1,273.2z"/>
	<path class="st2" d="M1740.1,273.2L1740.1,273.2C1740.1,273.2,1740.1,273.3,1740.1,273.2C1740.1,273.3,1740.1,273.3,1740.1,273.2z"
		/>
	<path class="st2" d="M1740.1,273.3C1739.7,273.4,1739.8,273.3,1740.1,273.3L1740.1,273.3z"/>
	<path class="st2" d="M1275.1,412.4c-1.9-0.1-2.1,1.2-2,2.5c0.2,2.3,2,3,4,3.3c1.3,0.2,2.1-0.4,2-1.9
		C1278.7,414.1,1277.8,412.4,1275.1,412.4z"/>
	<path class="st2" d="M811.1,442.5c-0.9,1.4-1.8,2.4-1.6,2.7c1.3,2.1,1,5.3,4,6.2c1.1,0.4,2.2-0.7,1.8-1.7
		C814.2,447.3,812.8,445.3,811.1,442.5z"/>
	<path class="st2" d="M1250.4,347.1c-2.4,0.7-5.3,0.8-6.5,3.4c-0.5,1.1,0.7,1.4,2.1,1.4c1.6-1.4,5,0.2,6.1-2.9
		C1252.4,348.1,1251.7,346.8,1250.4,347.1z"/>
	<path class="st2" d="M347.2,58.3c-0.3-0.4-0.7-0.9-1-1.4c-1.3,2.7-2.7,5.3-3.8,8.1c-0.1,0.3,1.1,1.6,1.2,1.6
		C346.6,64.7,346.2,61.4,347.2,58.3z"/>
	<path class="st2" d="M365.3,125.8c-0.2-0.1-1.1,1.5-1.3,1.8c0.1,2.8,0.9,4.6,3.1,4.8c0.6,0.1,2-1.5,2-2.3
		C369,127.9,367.3,126.6,365.3,125.8z"/>
	<path class="st2" d="M1443,336.9c-1.4-0.4-1.9,0.9-2,2c-0.1,3,2,3.2,4.2,3.4c0.9,0.1,2,0.4,1.8-1.1
		C1446.7,338.9,1445.2,337.4,1443,336.9z"/>
	<path class="st2" d="M1437.8,345.2c-0.4-0.1-1.7,1-1.7,1.4c0.2,2.4,1.5,4,4.4,4.3c1,0.2,1.7-0.4,1.7-1.8
		C1442.1,346.5,1439.9,345.8,1437.8,345.2z"/>
	<path class="st2" d="M380.3,177.1c-0.1,0.5,1.6,1.8,1.8,1.7c2-1.3,3.8-2.9,6.5-5c-1.7-0.3-2.4-0.6-3-0.5
		C383.3,173.8,380.8,174.4,380.3,177.1z"/>
	<path class="st2" d="M1511.4,440.1c0.3,0.2,0.7,0.4,0.8,0.4c4.7-0.5,9.1-0.9,13.5-1.3c0.2,0,0.4,0,0.5-0.1c0.4-0.3,0.7-0.6,1.1-0.9
		c-0.4-0.2-0.8-0.5-1.1-0.5c-4.5,0.5-9.1,1.1-13.6,1.7C1512.1,439.6,1511.7,439.9,1511.4,440.1z"/>
	<path class="st2" d="M1370.1,391.2c-0.3,1.1-0.7,1.6-0.6,2c0.9,2.7,1.8,5.4,5,6.2c0.2,0.1,1.2-1.5,1-1.7
		C1373.9,395.6,1372.2,393.7,1370.1,391.2z"/>
	<path class="st2" d="M2120.2,413.7c0.1,3.4,0.1,6.8,0.2,10.2c0.1,1.3,0.6,2.7,0.9,4c0.1-1.3,0.3-2.6,0.3-4c0-3,0-6,0-8.9
		C2121.6,414.2,2122,412.7,2120.2,413.7z"/>
	<path class="st2" d="M2120.2,413.7C2120.2,413.7,2120.2,413.7,2120.2,413.7C2120.2,413.7,2120.2,413.7,2120.2,413.7
		C2120.2,413.7,2120.2,413.7,2120.2,413.7z"/>
	<path class="st2" d="M304.3,3.9c-1,0-2.1,0-1.9,1.3c0.3,1.9,1.2,3.5,3.4,3.7c1.2,0.1,2.2-0.6,2.1-1.9
		C307.7,4.9,306.2,4.1,304.3,3.9z"/>
	<path class="st2" d="M1186.4,300.5c1.8,2.8,3.7,5.6,5.6,8.5c0.4-0.3,1.1-0.7,1-0.8c-1.2-3.3-3.1-6.1-5.9-8.5
		C1186.8,300,1186.3,300.4,1186.4,300.5z"/>
	<path class="st2" d="M-1.3,130.8c-0.3,1-0.2,2.2-0.5,3.2c-1.1,3.5-0.4,6.2,1.4,8.2V127C-1.4,127.7-0.9,129.7-1.3,130.8z"/>
	<path class="st2" d="M3.9,145c5.2,2,6.2-3.4,8.5-6.1c2.1-2.4,3.6-7,6.6-6.2c2.9,0.7,0.8,4.9,0.5,7.6c0,0.4-0.1,0.9-0.1,1.4
		c0,2.5,0.5,4.9,2.8,6c1,0.5,3.2,0.2,4-0.5c2.3-2.3,4.3-5.5,7.9-3c4,2.8,0.3,5.8-0.6,8.6c-0.5,1.7-1.4,3.4,0.2,4.8
		c1.4,1.2,3.3,0.9,4.9,0.1c4.5-2.5,5.2-9.6,1.7-13.3c-4.7-5.2-16.1-4.7-13.8-15.9c0.1-0.3-0.7-0.8-1.1-1.1
		c-7.8-5.5-12.5,0.3-17.6,4.8c-0.7,0.6-1.5,1.2-2.2,1.7c-0.3-0.9-0.7-1.7-1-2.6c-0.7-2.2-1.9-4.4-4.1-4.4c-0.5,0-0.8,0.1-1,0.3v15.2
		C0.7,143.4,2.1,144.3,3.9,145z"/>
	<path class="st2" d="M108.6,229.7c9.6-3.9,15.6-1.2,19.1,8.3c0.6,1.6,2.2,3.2,4.4,2.3c1.8-0.7,1.1-2.4,0.4-3.5
		c-4.1-6.5-9.2-11.7-17.5-12.3c-2.9-0.2-6,0.6-8.6-1.6c-0.7-0.6-1.8-0.9-2.7-1.3c-0.5,1.1-1,2.2-1.2,2.7
		C102.6,229.2,105.6,230.9,108.6,229.7z"/>
	<path class="st2" d="M54.8,160.9c0.8-0.4,1.1-1.6,1.6-2.5c-0.9-0.5-1.8-1-1.7-1c-5.7-0.4-9.3,1.8-12.8,4.3
		c-1.9,1.4-3.1,2.9-1.2,5.1c2,2.2,4.5,2.9,6.5,0.5C49.5,164.8,51.8,162.5,54.8,160.9z"/>
	<path class="st2" d="M200.8,263.1c2.2-2.6,4.3-5.3,6.5-7.9c0.4-0.5,1.2-1.1,1.6-1c0.5,0.1,1.2,1,1.2,1.5c-0.2,1.9,0.5,3.4,2.3,3.1
		c1.7-0.2,3.4-1.5,3.3-3.7c-0.1-2.5-1.9-2.2-3.8-2c-0.8,0.1-2.3-0.6-2.4-1c-0.4-4.2-2.4-2.5-4.4-1.5c-3.6,1.8-5.3,5.1-6.5,8.7
		C197.9,261.2,199.2,262.1,200.8,263.1z"/>
	<path class="st2" d="M224.2,250.9c1.6-0.8,3.3-1.3,5.1-2c5,1.7,9.9,3.4,14.9,5c1.3,0.4,3.2,0.8,3.6-1.2c0.3-1.7-0.9-3.1-2.4-2.9
		c-7.9,1.1-15.1-5.2-23.2-2.3c-0.9,0.3-2.3-2-2.8,0.2c-0.2,0.9,0.4,2.3,1.1,3.1C221.4,251.8,222.8,251.6,224.2,250.9z"/>
	<path class="st2" d="M192.2,179.8c-1.1,2-2.3,3.9-0.2,5.9c0.9,0.8,2.6,1.9,3.4,1.6c2.8-1.2-0.9-2.8,1-5.7c1.5-1.1,1.2-8.2,8-4
		c0.6,0.4,1.7,0,2.5,0c-0.2-0.4-0.3-1-0.7-1.2C200.3,172.7,195.6,173.5,192.2,179.8z"/>
	<path class="st2" d="M66.7,206.2c4.3-1,1.6-5.3,2.3-8.1c0.6-2.4-2.1-4.8-3.7-4.3c-3.3,1-2.2,4.8-2.9,7.3
		C61.8,204.7,64,206.9,66.7,206.2z"/>
	<path class="st2" d="M248.4,192.2c-1.7-2.1-3.4-4.8-6.6-2.3c-2.3,1.8-4.5,1.3-5.6-0.7c-1.8-3.3-5-2.7-7.8-3.9
		c-0.4,0.1-0.9,0.3-1.4,0.4c0.2,0.5,0.3,1.1,0.7,1.3c5.9,4.7,13,5.5,20.2,6.2C248,193.2,248.5,192.3,248.4,192.2z"/>
	<path class="st2" d="M92.8,221c1.1-0.3,2.8-0.6,2.5-2.3c-0.7-3.5-3.8-5.2-6.5-7c-0.5,0.7-1.5,1.5-1.4,2.2
		C87.9,217.1,88.4,220.4,92.8,221z"/>
	<path class="st2" d="M255.1,206.6c1.4,0,3.2-0.6,2.6-1.8c-1-2-3-3.6-4.5-5.3c-0.3,1.3-0.6,2.6-0.7,3.2
		C252.3,205.2,252.9,206.5,255.1,206.6z"/>
	<path class="st2" d="M179,184.1c-2,0.8-3.1,2.3-3.5,4.4c0.4,1.6,1,3.1,2.8,3.6c0.5-2.3,1.1-4.5,1.5-6.8
		C180,184.9,179.2,184,179,184.1z"/>
	<path class="st2" d="M211.1,182c-1.7-0.2-1.7,1.5-1.9,2.7c0.1,2.1,1.2,3.2,3.2,3.3c1.8,0.1,1.7-1.3,1.7-2.5
		C214.2,183.6,213,182.2,211.1,182z"/>
	<path class="st2" d="M1822.6,353.5c-0.7-0.3-1.9-0.9-1.9-1.2c0.5-3.2-2.4-2.2-3.7-2.8c-0.5-0.2-2.1,0.7-2.3,1.3
		c-0.6,1.9,1.9,2.3,2.3,3.5c0.6,1.6,6.8,1.2,1.9,4.9c-0.9,0.7-0.8,2.5,1.3,2.4c1.3-0.6,2.6-1.2,3.9-1.8c0,0,0,0,0,0
		C1828.1,356.6,1825.6,355,1822.6,353.5z"/>
	<path class="st2" d="M1820.4,361.6L1820.4,361.6c1.3-0.6,2.6-1.2,3.9-1.8c0,0,0,0,0,0c0,0,0,0,0,0
		C1823,360.4,1821.7,361,1820.4,361.6z"/>
	<path class="st2" d="M45.9,73.6c1.8,0.9,3.9,1.3,4.9,1.6c3.6,0,6-1,6.6-3.4c0.6-2.4-2.2-2.8-3.7-3c-2.6-0.3-5.2,1.9-7.9,0.2
		c-0.4,0.7-1.2,1.5-1.2,2.2C44.7,72,45.3,73.3,45.9,73.6z"/>
	<path class="st2" d="M66.2,68c1.7-1.7,3.6-3.4,4.9-5.4c0.4-0.6-0.7-3.5-2.3-2.8c-2.5,1-5.2,2.5-6.6,4.6
		C61.4,65.5,64.1,67.1,66.2,68z"/>
	<path class="st2" d="M317.1,177.2c1.4-1.5,5.5-0.3,5.2-2.9c-0.6-4.8-4.9-1.4-7.5-2c-0.6-0.2-2.3,1.2-2.2,1.7
		C312.9,176.3,315,176.6,317.1,177.2z"/>
	<path class="st2" d="M330.5,192.2c0.4,0.1,1.6-1.1,1.5-1.3c-1.6-2.8-2.9-5.8-6.7-7.3c-0.3,0.9-1.1,1.9-0.9,2.4
		C325.6,188.8,327.1,191.5,330.5,192.2z"/>
	<path class="st2" d="M139.4,54.1c0.5,0.1,1.2-0.5,1.9-0.8c-1.6-3.2-5.3-3.4-7.8-5.7c-0.8,0.6-2.1,1.2-2.1,1.5
		C132.2,53.5,136.2,53.3,139.4,54.1z"/>
	<path class="st2" d="M311.6,185.7c1.5,0.2,2.9-0.9,3-2.5c0.1-2.4-2.1-2.8-3.7-3.5c-1.8,0-3.4,0.9-3.3,2.2
		C307.9,183.8,309.6,185.4,311.6,185.7z"/>
	<path class="st2" d="M48,88.2c0.4-0.5,1.5-1.3,1.3-1.7c-0.9-2.4-2.6-4.3-5.2-5c-0.9-0.2-2,0-1.8,1.3C42.7,86,44.8,87.4,48,88.2z"/>
	<path class="st2" d="M118,49.2c1,0.1,2-0.1,1.9-1.3c-0.3-2.5-2-3.7-4.5-3.8c-1-0.1-2,0-1.9,1.2C113.8,47.9,115.7,48.9,118,49.2z"/>
	<path class="st2" d="M300.1,171.8c1.2,0.2,1.9-0.3,1.8-1.6c-0.1-2.6-2.3-2.9-4.5-4c-0.5,0.7-1.5,1.4-1.5,2
		C296.2,170.5,298.1,171.3,300.1,171.8z"/>
	<path class="st2" d="M88.8,359.4c-2.5-0.1-4.4-0.6-4.5,1.5c-0.1,1.9-1.1,4.4,1.3,5.6c1.8,0.9,3.7,1.6,5.5-0.8
		c1.1-1.6,1.6-4.6,4.4-4.2c3.2,0.5,4.3,3.3,5.2,6c0.9,2.8,1.5,5.9,4.4,7.5c1.1,0.6,2.5,0.4,3.8,0.6c0.1-0.9,0.6-1.9,0.3-2.7
		C105.2,363.3,101.1,354.1,88.8,359.4z"/>
	<path class="st2" d="M3.1,333.6c2.3,0.8,2.1-1.1,1.5-2c-0.6-1-2-1.6-2.7-2.1c-0.8,0.1-1.6,0.3-2.4,0.5v3.7c0.6-0.5,1.3-1,1.9-1.5
		C1.6,332.2,2.5,333.4,3.1,333.6z"/>
	<path class="st2" d="M16.7,337.9c-3.7,0.3-7.3,1.5-9,5.3c-0.3,0.7,0.5,1.9,1.2,4.2c4-6.4,10.8-3.2,12.5-8.4
		C22.1,337.2,18.3,337.8,16.7,337.9z"/>
	<path class="st2" d="M117,379.3c-2.5-0.1-2.3,4.3-2.8,6.7c-0.5,2.6,1.9,3.1,3.9,3.3c1.8,0.2,2.6-1,2.8-3.1
		C119.5,384.2,120.9,379.4,117,379.3z"/>
	<path class="st2" d="M56.4,328c-2.6,0.2-5.5,1-6.4,3.9c-0.5,1.4,1.5,2.6,3,2.2c2.8-0.7,6.1-1.3,7-4.4
		C60.4,328.1,58.1,328.2,56.4,328z"/>
	<path class="st2" d="M77.6,350.2c-2.5,0.6-5.9,0.4-6.9,3.5c-0.5,1.6,1.9,2.7,3.5,2.4c2.7-0.4,5.8-1.2,6.6-4.2
		C81.3,350.2,79,350.5,77.6,350.2z"/>
	<path class="st2" d="M1990.1,410.7c-2.4,4.7,1.7,5.1,3.4,6.8c0.8,0.8,3.4,1,4.6-0.6c1.2-1.6-0.4-2.5-1.5-3.5
		c-1.6-1.5-3.7-2.7-4.7-4.6c-1.3-2.3-1.7-6.1-4.9-5.6c-3.6,0.6-0.8,3.6-0.8,5.6C1987.6,409.5,1991.6,407.7,1990.1,410.7z"/>
	<path class="st2" d="M1986.2,408.8C1986.2,408.8,1986.2,408.8,1986.2,408.8L1986.2,408.8C1986.2,408.8,1986.2,408.8,1986.2,408.8
		C1986.2,408.8,1986.2,408.8,1986.2,408.8C1986.2,408.8,1986.2,408.8,1986.2,408.8z"/>
	<path class="st2" d="M1986.2,408.8C1986.2,408.8,1986.2,408.8,1986.2,408.8C1986.2,408.8,1986.2,408.8,1986.2,408.8L1986.2,408.8z"
		/>
	<path class="st2" d="M1985.1,390.4c-1.2-2.6-1.5-5.9-3.9-7.2c-2.5-0.1-3.9,1.2-3.3,2.1c1.7,2.4,1.8,6.2,5.6,6.9
		C1984.9,392.6,1985.5,391.3,1985.1,390.4z"/>
	<path class="st2" d="M1993.7,396.2c-1.3,0.4-3.5,0.3-3.3,2.1c0.4,2.9,3.4,3.3,5.7,4.2c0.3,0.1,1.9-2,1.9-2.9
		C1997.8,397.3,1995.8,396.5,1993.7,396.2z"/>
	<path class="st2" d="M2006.8,426.3c1,0-0.4-3.1-0.5-4c-0.2-2.2-2.9-1.7-4.5-2.3c-1.2-0.4-2.5,0.7-2.3,2
		C1999.9,424.6,2001.6,426,2006.8,426.3z"/>
	<path class="st2" d="M1999.9,430.5c1.1,2.2,2.3,4.4,5,4.7c2.3,0.3,2-1.9,3-3.3c-1.7-0.8-3.3-1.7-4.9-2.2
		C2002.1,429.5,2000.9,430.2,1999.9,430.5z"/>
	<path class="st2" d="M1986.2,395.7c-1.3,0-2.7,0.5-2.3,1.9c0.4,1.6,0.3,4,3.3,3.9c0.8-0.6,3.2,0.3,2.6-1.4
		C1989.3,398.5,1989.1,395.8,1986.2,395.7z"/>
	<path class="st2" d="M2024.2,435.8c-1.8,0.1-3.6,0.5-3.1,1.8c0.6,1.4,2.5,3.2,3.9,3.2c1.3,0,4.2-1.2,3.2-3.5
		C2027.9,436.3,2025.4,436.2,2024.2,435.8z"/>
	<path class="st2" d="M1675.6,422c0.1,0,1.6,0.1,2.5-0.5c2-1.4,4.9-2.5,4.2-5.6c-0.3-1.1-2.5-3-3.1-2.7
		c-10.8,4.5-13.4-3.6-16.9-10.5c-0.6-1.2-1-2.9-2.7-2.5c-1.7,0.4-2.2,2.1-2.2,3.7C1656.9,411.8,1666.4,421.9,1675.6,422z"/>
	<path class="st2" d="M1663.1,425c0.2-0.2,0-1.5-0.3-1.7c-3.4-1.5-6.7-2.6-9.3,1.5c-2.8,4.6-3.4,9.6-3.9,15.3
		c0.2,1.1,0.2,2.6,0.7,4.1c0.6,1.8,1.1,4.4,3.4,4.3c2.2-0.1,2.3-2.8,2.4-4.4C1656.6,437,1656.8,429.9,1663.1,425z"/>
	<path class="st2" d="M1661.9,430.1c-2,2.1-2.8,4.8-2.9,9c0.1,1.9,0.5,5.5,4,6.1c3.6,0.6,2.7-3.1,3.4-5.2c0.5-1.3,1.3-2.6,2.4-3.6
		c2.6-2.5,3.5-5.4,0.7-8C1666.6,425.5,1664,427.8,1661.9,430.1z"/>
	<path class="st2" d="M1673.7,412.1c3.3,0,3.7-2.8,3.1-3.6c-2.6-3.4-4.1-8.1-8.8-9.3c-1.4-0.4-2.5,1.4-2.2,2.8
		C1666.8,406.9,1668.7,411.1,1673.7,412.1z"/>
	<path class="st2" d="M419.7,335c-0.1-0.1-1.8,1-1.8,1.3c0.8,3.9,4.9,2.8,7.3,4.4c1.1,0.7,2.4-0.5,2.4-2.9
		C426.3,334.8,421.9,337.2,419.7,335z"/>
	<path class="st2" d="M425.4,326.8c-0.5,1.6,0.9,3,3.5,3.4c1.6-1.4,3.6-3,5.5-4.6c-0.7-0.6-1.3-1.3-2-1.9
		C430.5,325.7,426.4,323.4,425.4,326.8z"/>
	<path class="st2" d="M397.4,341.7c-0.7,0.5-3.4-0.9-2.8,0.7c0.5,1.6,3.3,2.7,5.2,3.5c1.1,0.5,2.5-0.5,2.3-1.9
		C401.8,341.5,399.8,341.5,397.4,341.7z"/>
	<path class="st2" d="M1851.5,140.8c0.7,0.5,1.6,0.8,2.1,1.5c1,1.4,1.6,2.9,2.5,4.3c0.5,0.8,1.1,1.7,1.8,2.1c0.5,0.2,1.9-0.5,2-0.9
		c1.2-4.8,5.2-4.1,8.6-4.8c1.6-0.3,4,0.2,4.4-2.3c0.7-4.5,3.4-7.8,6.3-11.1c0.5-0.6,1-2.2,0.7-2.4c-0.8-0.6-2.3-1.4-3-1.1
		c-2.9,1.3-6.4,2.6-7.4,5.6c-2.4,7.5-9,6.7-14.6,7.9C1853.8,139.9,1852.6,140.3,1851.5,140.8z"/>
	<path class="st2" d="M1849.2,137.8c2.8-0.3,5.6-1.1,8.4-1.9c2.4-0.6,6.2-1,5.8-3.8c-0.4-2.6-3.6-4.6-8.7-4.2
		c-2.3,0.2-6.2,0.6-9,4.1c-1.2,1.5-1.6,3.2-0.5,4.4C1845.9,137.4,1847.8,137.9,1849.2,137.8z"/>
	<path class="st2" d="M1887.6,97.2c0.5,0.1,1.9-1,2-1.6c0.7-8.5,6.4-10.7,13.7-11c1.3-0.1,2.6-0.5,2.4-1.9c-0.1-0.8-1.1-1.8-1.9-2.2
		c-9-3.6-17.3,2.8-17.6,13.4C1886.2,95.1,1885.9,96.8,1887.6,97.2z"/>
	<path class="st2" d="M1873,116.9c7.1-2.7,10.1-8.2,10-16.7c0.1,0.2-0.2-0.8-0.9-1.5c-0.2-0.2-1.7,0.4-2.1,1
		c-2.8,4.2-4.7,9-9.9,11.4c-2,0.9-1.3,3.3-0.1,4.7C1870.7,116.5,1872.2,117.1,1873,116.9z"/>
	<path class="st2" d="M1886.6,114.9c-3,0.9-5.4,2.6-5.4,6.5c1,1.8-0.4,7,3.6,4.8c2.7-1.5,4.8-4.8,8.3-5.8c0.3-0.1,0.6-1.7,0.2-2.3
		C1891.9,115.6,1889.6,114,1886.6,114.9z"/>
	<path class="st2" d="M1841.5,164.2c4.8-0.3,8-2.6,9.3-6.4c0.6-1.7-1.7-3.9-3.6-3.4c-3.7,0.9-6.6,3.3-7.4,7.4
		C1839.5,163.4,1840.4,164.1,1841.5,164.2z"/>
	<path class="st2" d="M1865.8,337.8C1865.8,337.8,1865.8,337.8,1865.8,337.8C1865.9,337.8,1865.9,337.8,1865.8,337.8
		C1865.9,337.8,1865.8,337.8,1865.8,337.8z"/>
	<path class="st2" d="M1860.9,332.9c0.3,3.4-4.2,4.9-4,7.6c0.6,6.8,5.5,1.5,8.2,1.8c2.5,0.3,1-2.9,0.8-4.6
		C1864.3,336.1,1861.3,335.8,1860.9,332.9z"/>
	<path class="st2" d="M775.7,331.1c0.7,0.9,1.3,1.7,2,2.6c1.2-2.6,2.5-5.1,3.6-7.4c-0.4-2.2-1.4-4.4-3.2-3.9
		C772.8,323.9,779.3,328.9,775.7,331.1z"/>
	<path class="st2" d="M794,331.8c-0.6-5.2-4-1.1-5.7-2.4c-0.1-0.1-0.8,0.6-1.2,1c1.5,1.1,2.8,2.4,4.4,3.1
		C792.2,333.6,793.4,332.2,794,331.8z"/>
	<path class="st2" d="M795.8,322.2c1.7,0,1.9-1.4,2-2.7c-0.2-1.5-0.6-2.9-2.5-2.9c-1.4,0-2.5,0.8-2.4,2.3
		C793,320.6,793.8,322.1,795.8,322.2z"/>
	<path class="st2" d="M658.5,399.6c-1.4,0.5-2.4,0.8-3.1,1c-1.4,1.2-2.8,2.4-4.3,3.5c0,0,0.1-0.1,0.1-0.1
		C652.8,403.1,654.4,402.1,658.5,399.6z"/>
	<path class="st2" d="M1059.2,284.6c-1-0.9-2.9-0.8-4.7-1.2c-0.5,0.3-1.6,0.5-1.7,1c-0.2,0.6,0.2,1.7,0.7,2c1.4,0.9,2.9,2.1,4.5,2.3
		c3.1,0.4,6.5,5.6,7.7,3.2C1067.8,287.7,1061.7,286.9,1059.2,284.6z"/>
</g>
</svg>
